<svg width="124" height="124" viewBox="0 0 124 124" fill="none" xmlns="http://www.w3.org/2000/svg">
<g filter="url(#filter0_d_87_41)">
<path d="M112 62C112 34.3858 89.6142 12 62 12C34.3858 12 12 34.3858 12 62C12 89.6142 34.3858 112 62 112C89.6142 112 112 89.6142 112 62Z" fill="#7C42F6"/>
</g>
<path d="M108.875 62C108.875 36.1117 87.8884 15.125 62 15.125C36.1117 15.125 15.125 36.1117 15.125 62C15.125 87.8884 36.1117 108.875 62 108.875C87.8884 108.875 108.875 87.8884 108.875 62Z" stroke="#9D62E9" stroke-width="4"/>
<mask id="mask0_87_41" style="mask-type:luminance" maskUnits="userSpaceOnUse" x="30" y="30" width="64" height="64">
<path d="M93.25 30.75H30.75V93.25H93.25V30.75Z" fill="white"/>
</mask>
<g mask="url(#mask0_87_41)">
<path d="M93.25 71.7656C93.25 77.4636 90.9864 82.9283 86.9573 86.9573C82.9283 90.9864 77.4636 93.25 71.7656 93.25C66.0677 93.25 60.603 90.9864 56.5739 86.9573C52.5448 82.9283 50.2812 77.4636 50.2812 71.7656C50.2812 66.0677 52.5448 60.603 56.5739 56.5739C60.603 52.5448 66.0677 50.2812 71.7656 50.2812C77.4636 50.2812 82.9283 52.5448 86.9573 56.5739C90.9864 60.603 93.25 66.0677 93.25 71.7656ZM62.9766 76.9297C63.2461 80.1914 65.8906 82.7305 70.6484 83.0312V85.4375H72.7578V83.0156C77.6758 82.6797 80.5547 80.125 80.5547 76.4141C80.5547 73.0352 78.3555 71.2969 74.4219 70.3984L72.7578 70.0078V63.4609C74.8672 63.6953 76.2109 64.8164 76.5312 66.3711H80.2344C79.9609 63.2305 77.1914 60.7734 72.7578 60.5039V58.0938H70.6484V60.5508C66.4453 60.9531 63.5859 63.4102 63.5859 66.8867C63.5859 69.9609 65.7109 71.918 69.25 72.7188L70.6484 73.0508V80.0039C68.4844 79.6914 67.0547 78.5352 66.7305 76.9297H62.9766ZM70.6328 69.5273C68.5547 69.0586 67.4297 68.1055 67.4297 66.668C67.4297 65.0664 68.6445 63.8594 70.6484 63.5078V69.5234H70.6289L70.6328 69.5273ZM73.0625 73.6055C75.582 74.1719 76.7461 75.0898 76.7461 76.7148C76.7461 78.5664 75.3008 79.8398 72.7617 80.0742V73.5352L73.0625 73.6055Z" fill="white"/>
<path opacity="0.6" d="M30.75 50.2815C30.7509 54.8018 32.3192 59.1819 35.1875 62.6757C38.0559 66.1694 42.0469 68.5605 46.4805 69.4416C46.733 66.6429 47.4513 63.906 48.6055 61.344C45.1836 60.1877 42.9844 57.5627 42.4688 53.8361H40.5156V52.1721H42.3359V50.4768C42.3359 50.2971 42.3359 50.1135 42.3516 49.9494H40.5156V48.2815H42.5117C43.3906 43.4065 47.207 40.5158 52.9414 40.5158C54.1758 40.5158 55.2461 40.6369 56.1406 40.8479V43.7111C55.0958 43.4786 54.0272 43.3711 52.957 43.3908C49.3672 43.3908 46.9492 45.2111 46.1836 48.2815H53.6719V49.9494H45.9375C45.9258 50.1291 45.9258 50.3283 45.9258 50.5236V52.1721H53.6719V53.8401H46.1016C46.5625 56.1916 47.9297 57.8635 50.0273 58.6408C52.0841 55.2344 54.9128 52.3591 58.285 50.2468C61.6573 48.1346 65.4789 46.8444 69.4414 46.4807C68.4834 41.7366 65.7987 37.5168 61.9075 34.639C58.0162 31.761 53.1955 30.4296 48.3787 30.9027C43.562 31.376 39.0925 33.6199 35.8356 37.2C32.5787 40.7802 30.7666 45.4416 30.75 50.2815Z" fill="white"/>
</g>
<defs>
<filter id="filter0_d_87_41" x="0" y="0" width="124" height="124" filterUnits="userSpaceOnUse" color-interpolation-filters="sRGB">
<feFlood flood-opacity="0" result="BackgroundImageFix"/>
<feColorMatrix in="SourceAlpha" type="matrix" values="0 0 0 0 0 0 0 0 0 0 0 0 0 0 0 0 0 0 127 0" result="hardAlpha"/>
<feOffset/>
<feGaussianBlur stdDeviation="6"/>
<feComposite in2="hardAlpha" operator="out"/>
<feColorMatrix type="matrix" values="0 0 0 0 0 0 0 0 0 0 0 0 0 0 0 0 0 0 0.12 0"/>
<feBlend mode="normal" in2="BackgroundImageFix" result="effect1_dropShadow_87_41"/>
<feBlend mode="normal" in="SourceGraphic" in2="effect1_dropShadow_87_41" result="shape"/>
</filter>
</defs>
</svg>
