<svg width="124" height="124" viewBox="0 0 124 124" fill="none" xmlns="http://www.w3.org/2000/svg">
<g filter="url(#filter0_d_87_51)">
<path d="M112 62C112 34.3858 89.6142 12 62 12C34.3858 12 12 34.3858 12 62C12 89.6142 34.3858 112 62 112C89.6142 112 112 89.6142 112 62Z" fill="#7C42F6"/>
</g>
<path d="M108.875 62C108.875 36.1117 87.8884 15.125 62 15.125C36.1117 15.125 15.125 36.1117 15.125 62C15.125 87.8884 36.1117 108.875 62 108.875C87.8884 108.875 108.875 87.8884 108.875 62Z" stroke="#9D62E9" stroke-width="4"/>
<path opacity="0.6" d="M56.4766 49C55.1513 50.3255 54.1631 51.9497 53.5953 53.7361C53.0275 55.5225 52.8966 57.4191 53.2135 59.2666C53.5303 61.1141 54.2858 62.8588 55.4163 64.3539C56.5469 65.8491 58.0197 67.0511 59.711 67.8594L62.7383 64.8282C61.4139 64.4729 60.2063 63.7754 59.2369 62.8055C58.2675 61.8357 57.5703 60.6279 57.2156 59.3032C56.861 57.9786 56.8611 56.5841 57.2163 55.2596C57.5713 53.935 58.2686 52.7274 59.2383 51.7579L66.375 44.6172C67.841 43.1513 69.8292 42.3277 71.9024 42.3277C73.9755 42.3277 75.9638 43.1513 77.4297 44.6172C78.8956 46.0832 79.7192 48.0714 79.7192 50.1446C79.7192 52.2177 78.8956 54.206 77.4297 55.6719L74.3321 58.7657C74.7696 60.4063 74.9375 62.1055 74.8321 63.793L80.1914 58.4336C82.3892 56.2357 83.6241 53.2547 83.6241 50.1464C83.6241 47.0382 82.3892 44.0572 80.1914 41.8594C77.9936 39.6614 75.0125 38.4268 71.9042 38.4268C68.7961 38.4268 65.815 39.6614 63.6172 41.8594L56.4766 49Z" fill="white"/>
<path d="M49.168 56.3047L43.8086 61.6641C41.6108 63.8619 40.376 66.843 40.376 69.9511C40.376 73.0594 41.6108 76.0405 43.8086 78.2383C46.0064 80.4361 48.9875 81.6709 52.0957 81.6709C55.2039 81.6709 58.185 80.4361 60.3829 78.2383L67.5235 71.0938C68.8488 69.7681 69.8369 68.1441 70.4047 66.3577C70.9725 64.5712 71.1035 62.6745 70.7866 60.827C70.4697 58.9795 69.7144 57.235 68.5838 55.7398C67.4532 54.2447 65.9804 53.0425 64.2891 52.2344L62 54.5234C61.7677 54.7563 61.5655 55.0173 61.3985 55.3008C62.7052 55.6764 63.8913 56.3866 64.8394 57.3611C65.7877 58.3356 66.465 59.5408 66.8047 60.8573C67.1444 62.1739 67.1346 63.5562 66.7763 64.868C66.418 66.1795 65.7236 67.375 64.7618 68.3359L57.625 75.4766C56.1591 76.9425 54.1708 77.7661 52.0977 77.7661C50.0246 77.7661 48.0363 76.9425 46.5704 75.4766C45.1044 74.0106 44.2808 72.0223 44.2808 69.9492C44.2808 67.8761 45.1044 65.8878 46.5704 64.4219L49.668 61.3281C49.231 59.6903 49.0621 57.9925 49.168 56.3008V56.3047Z" fill="white"/>
<defs>
<filter id="filter0_d_87_51" x="0" y="0" width="124" height="124" filterUnits="userSpaceOnUse" color-interpolation-filters="sRGB">
<feFlood flood-opacity="0" result="BackgroundImageFix"/>
<feColorMatrix in="SourceAlpha" type="matrix" values="0 0 0 0 0 0 0 0 0 0 0 0 0 0 0 0 0 0 127 0" result="hardAlpha"/>
<feOffset/>
<feGaussianBlur stdDeviation="6"/>
<feComposite in2="hardAlpha" operator="out"/>
<feColorMatrix type="matrix" values="0 0 0 0 0 0 0 0 0 0 0 0 0 0 0 0 0 0 0.12 0"/>
<feBlend mode="normal" in2="BackgroundImageFix" result="effect1_dropShadow_87_51"/>
<feBlend mode="normal" in="SourceGraphic" in2="effect1_dropShadow_87_51" result="shape"/>
</filter>
</defs>
</svg>
