<svg width="514" height="454" viewBox="0 0 514 454" fill="none" xmlns="http://www.w3.org/2000/svg">
<g filter="url(#filter0_d_307_871)">
<rect x="47" y="39" width="420" height="360" rx="24" fill="white" shape-rendering="crispEdges"/>
<g clip-path="url(#clip0_307_871)">
<path d="M198.959 179.84L210.165 184.155L219.634 206.022L213.106 240.573L184.403 258.989L169.836 253.312L143.46 228.526L149.694 193.454L172.651 179L198.959 179.84ZM177.965 204.251L172.867 215.333L181.292 221.01L190.375 217.706L190.012 206.942L177.965 204.251Z" fill="#190232"/>
<path d="M149.694 193.454L158.118 198.529L167.19 193.476L180.338 182.202L172.651 179.011L149.694 193.454Z" fill="#2B2063"/>
<path d="M210.71 184.847L231.942 211.722L225.005 248.384L184.403 258.989L152.782 230.751L158.118 198.529L181.848 183.598L182.984 183.292L210.233 184.155L210.778 184.847H210.71ZM227.741 212.801L208.178 188.004L183.381 187.22L161.695 200.845L157.006 229.23L185.47 254.674L221.598 245.239L227.73 212.801H227.741ZM189.274 212.744L185.538 220.817L191.783 225.04L198.595 222.576L198.368 214.765L189.285 212.744H189.274ZM181.326 220.692L187.105 208.202L202.172 211.609L202.569 225.233L191.215 229.366L180.611 222.202L181.315 220.703L181.326 220.692Z" fill="#3C17B8"/>
<path d="M209.166 186.085L229.841 212.267L223.313 246.806L184.948 256.831L154.894 229.991L159.912 199.698L182.87 185.256L209.166 186.085ZM188.184 210.496L183.074 221.532L191.499 227.209L200.582 223.905L200.23 213.187L188.184 210.496Z" fill="#AA5EFF"/>
<path fill-rule="evenodd" clip-rule="evenodd" d="M183.029 221.532L191.567 229.264L200.73 223.837L200.548 223.814V223.916L191.499 227.22L183.097 221.543L183.029 221.532Z" fill="#EF9BC8"/>
<path fill-rule="evenodd" clip-rule="evenodd" d="M175.456 189.923L186.446 187.493L207.145 189.627L227.752 212.892L227.15 226.528L229.841 212.267L209.166 186.085L182.87 185.245L175.456 189.923Z" fill="#EF9BC8"/>
<path fill-rule="evenodd" clip-rule="evenodd" d="M166.168 203.048C166.94 203.938 167.941 204.598 169.064 204.955C171.334 205.75 173.741 204.898 174.025 203.967C174.196 203.388 175.365 200.981 172.674 200.062C170.88 199.448 166.112 200.459 165.862 201.39C165.612 202.321 165.862 202.525 166.202 203.048H166.168Z" fill="#190232"/>
<path fill-rule="evenodd" clip-rule="evenodd" d="M166.168 203.661C166.942 204.553 167.948 205.214 169.075 205.568C171.402 206.363 173.741 205.568 174.025 204.58C174.207 203.99 175.365 201.594 172.685 200.675C170.892 200.062 166.112 201.061 165.873 201.992C165.635 202.923 165.873 203.127 166.214 203.661H166.168Z" fill="#EF9BC8"/>
<path fill-rule="evenodd" clip-rule="evenodd" d="M166.043 203.366C166.819 204.255 167.825 204.915 168.95 205.273C171.278 206.068 173.616 205.216 173.9 204.285C174.082 203.706 175.24 201.299 172.561 200.379C170.767 199.766 165.987 200.777 165.748 201.708C165.51 202.639 165.748 202.843 166.089 203.366H166.043Z" fill="#3C17B8"/>
<path fill-rule="evenodd" clip-rule="evenodd" d="M213.276 219.556C214.09 220.486 215.142 221.177 216.319 221.555C218.771 222.395 221.235 221.555 221.53 220.521C221.723 219.874 222.938 217.388 220.111 216.468C218.238 215.821 213.219 216.888 212.913 217.865C212.606 218.841 212.913 219 213.276 219.613V219.556Z" fill="#190232"/>
<path fill-rule="evenodd" clip-rule="evenodd" d="M213.344 220.204C214.161 221.135 215.217 221.826 216.398 222.202C218.851 223.031 221.315 222.202 221.61 221.157C221.791 220.556 223.018 218.024 220.19 217.058C218.317 216.411 213.287 217.467 212.992 218.455C212.697 219.443 212.992 219.59 213.344 220.204Z" fill="#EF9BC8"/>
<path fill-rule="evenodd" clip-rule="evenodd" d="M213.196 219.874C214.007 220.816 215.065 221.512 216.251 221.884C218.692 222.713 221.156 221.827 221.451 220.839C221.644 220.226 222.859 217.706 220.043 216.741C218.158 216.093 213.14 217.149 212.833 218.126C212.527 219.102 212.833 219.261 213.196 219.874Z" fill="#3C17B8"/>
<path fill-rule="evenodd" clip-rule="evenodd" d="M194.303 251.404C192.702 252.193 190.933 252.582 189.149 252.54C185.357 252.54 182.336 250.485 182.336 249.202C182.336 248.395 181.78 244.91 186.151 244.898C189.069 244.898 195.609 248.191 195.586 249.44C195.564 250.689 195.11 250.825 194.303 251.37V251.404Z" fill="#190232"/>
<path fill-rule="evenodd" clip-rule="evenodd" d="M193.906 252.131C192.306 252.925 190.536 253.314 188.751 253.266C184.959 253.266 181.939 251.211 181.939 249.928C181.939 249.133 181.383 245.636 185.754 245.636C188.672 245.636 195.212 248.918 195.189 250.178C195.166 251.438 194.712 251.563 193.906 252.108V252.131Z" fill="#EF9BC8"/>
<path fill-rule="evenodd" clip-rule="evenodd" d="M194.269 251.836C192.663 252.623 190.892 253.012 189.103 252.971C185.311 252.971 182.291 250.916 182.291 249.633C182.291 248.827 181.735 245.341 186.106 245.33C189.035 245.33 195.564 248.611 195.552 249.871C195.541 251.132 195.064 251.257 194.269 251.813V251.836Z" fill="#3C17B8"/>
<path fill-rule="evenodd" clip-rule="evenodd" d="M192.021 239.176C191.276 239.761 190.418 240.186 189.501 240.425C187.65 240.947 186.174 240.425 186.185 239.744C186.09 239.152 186.232 238.547 186.581 238.06C186.93 237.573 187.457 237.244 188.047 237.144C189.467 236.746 192.657 237.439 192.589 238.063C192.521 238.688 192.351 238.801 191.965 239.199L192.021 239.176Z" fill="#190232"/>
<path fill-rule="evenodd" clip-rule="evenodd" d="M191.828 239.63C191.081 240.213 190.224 240.638 189.308 240.879C187.457 241.401 185.981 240.879 185.981 240.198C185.886 239.605 186.03 238.998 186.381 238.511C186.732 238.024 187.262 237.695 187.854 237.598C189.274 237.189 192.464 237.893 192.396 238.517C192.328 239.142 192.158 239.255 191.771 239.653L191.828 239.63Z" fill="#EF9BC8"/>
<path fill-rule="evenodd" clip-rule="evenodd" d="M191.999 239.437C191.251 240.018 190.393 240.443 189.478 240.686C187.639 241.208 186.151 240.618 186.163 239.993C186.067 239.402 186.21 238.797 186.558 238.31C186.907 237.823 187.434 237.494 188.025 237.393C189.444 236.996 192.634 237.7 192.566 238.324C192.498 238.949 192.339 239.062 191.942 239.46L191.999 239.437Z" fill="#3C17B8"/>
<path fill-rule="evenodd" clip-rule="evenodd" d="M201.922 244.058C201.239 244.504 200.462 244.784 199.651 244.876C198.118 245.08 197.119 244.24 197.267 243.615C197.3 243.063 197.519 242.538 197.887 242.126C198.256 241.714 198.754 241.438 199.299 241.345C200.435 241.197 202.705 242.48 202.603 243.07C202.564 243.283 202.477 243.485 202.349 243.66C202.222 243.835 202.056 243.979 201.865 244.081L201.922 244.058Z" fill="#190232"/>
<path fill-rule="evenodd" clip-rule="evenodd" d="M201.683 244.433C201.001 244.879 200.223 245.159 199.413 245.25C197.88 245.455 196.881 244.615 197.028 243.99C197.057 243.438 197.272 242.912 197.64 242.5C198.007 242.087 198.504 241.812 199.049 241.719C200.185 241.572 202.512 242.855 202.365 243.456C202.322 243.667 202.233 243.865 202.106 244.037C201.978 244.21 201.815 244.353 201.627 244.456L201.683 244.433Z" fill="#EF9BC8"/>
<path fill-rule="evenodd" clip-rule="evenodd" d="M201.865 244.263C201.2 244.704 200.443 244.988 199.651 245.091C198.107 245.284 197.108 244.444 197.267 243.82C197.293 243.267 197.508 242.74 197.876 242.327C198.244 241.914 198.742 241.639 199.288 241.549C200.423 241.39 202.694 242.684 202.592 243.275C202.49 243.865 202.24 243.967 201.865 244.274V244.263Z" fill="#3C17B8"/>
<path d="M226.197 231.501C224.437 233.295 223.926 234.827 221.235 236.179C219.442 237.105 217.381 237.374 215.41 236.939L211.777 238.245C211.777 238.245 212.22 238.086 218.93 238.608C220.417 238.71 223.472 238.495 224.687 238.869C225.152 239.017 224.335 240.913 224.618 240.8C225.584 240.402 225.515 238.654 225.754 237.938C226.119 236.795 226.27 235.594 226.197 234.396V231.501Z" fill="#3C17B8"/>
<path fill-rule="evenodd" clip-rule="evenodd" d="M223.438 242.162C223.723 241.249 223.935 240.315 224.074 239.369L211.516 238.915L223.12 240.198L223.438 242.162Z" fill="#EF9BC8"/>
<path d="M159.492 200.822C158.834 202.049 159.106 205.137 162.626 207.374C166.418 209.792 172.447 209.974 173.73 209.849L178.828 212.063C178.828 212.063 178.215 211.79 166.997 212.358C164.499 212.46 159.742 212.006 157.483 212.562C156.642 212.767 156.813 215.81 156.427 215.605C155.098 214.935 156.268 212.199 156.268 211.064C156.53 207.947 157 204.852 157.676 201.799L159.492 200.856V200.822Z" fill="#3C17B8"/>
<path fill-rule="evenodd" clip-rule="evenodd" d="M157.528 217.819C157.528 217.819 157.993 213.402 158.255 213.368C158.516 213.334 178.93 213.141 178.93 213.141L159.208 214.72L157.528 217.819Z" fill="#EF9BC8"/>
<path d="M289.211 213.618L289.325 213.527V209.179L289.257 208.645C288.8 208.201 288.417 207.688 288.121 207.124C287.618 206.256 287.171 205.357 286.781 204.433C286.374 203.504 286.033 202.548 285.76 201.572C285.536 200.857 285.402 200.117 285.362 199.369C285.362 199.255 285.362 199.051 285.362 198.767C285.362 198.483 285.362 198.29 285.362 198.188C285.362 198.086 285.623 198.529 285.794 199.051C285.964 199.573 286.134 200.186 286.327 200.845C286.52 201.504 286.713 202.151 286.906 202.775C287.027 203.219 287.194 203.649 287.406 204.058L289.018 206.636L287.315 192.625L287.122 190.967L286.316 184.257H280.049L279.856 187.084L280.162 186.925L280.548 186.709L281.445 186.641C281.445 186.857 281.252 187.095 280.855 187.368C280.511 187.607 280.155 187.826 279.787 188.026L279.708 189.957H280.775L280.855 190.944L281.74 202.65L281.865 204.376H278.527V209.44H282.217V214.765H286.112L286.407 214.651C286.482 214.615 286.562 214.592 286.645 214.583L286.85 214.651L287.167 214.765H289.438V213.686L289.132 213.834C289.147 213.758 289.174 213.686 289.211 213.618ZM287.009 205.602C287.202 205.602 287.292 205.727 287.292 205.988C287.292 206.249 287.202 206.42 287.009 206.42C286.816 206.42 286.657 206.284 286.657 205.988C286.657 205.693 286.77 205.602 287.009 205.602ZM283.33 210.326C283.534 210.326 283.648 210.439 283.648 210.678C283.648 210.916 283.534 211.075 283.33 211.075C283.125 211.075 283.001 210.939 283.001 210.678C283.001 210.416 283.114 210.326 283.33 210.326ZM283.75 211.904V212.256C283.75 212.324 283.636 212.46 283.534 212.664C283.48 212.8 283.411 212.929 283.33 213.051C283.334 212.99 283.334 212.929 283.33 212.869C283.323 212.797 283.323 212.725 283.33 212.653C283.313 212.514 283.313 212.373 283.33 212.233C283.341 212.108 283.489 211.995 283.75 211.926V211.904ZM284.885 211.472C284.67 211.472 284.567 211.336 284.567 211.075H284.465C284.272 211.075 284.17 210.939 284.17 210.678C284.17 210.416 284.272 210.326 284.465 210.326C284.513 210.32 284.561 210.325 284.606 210.341C284.651 210.357 284.692 210.383 284.726 210.417C284.76 210.45 284.786 210.491 284.802 210.537C284.817 210.582 284.823 210.63 284.817 210.678H284.885C284.931 210.673 284.978 210.678 285.022 210.692C285.066 210.706 285.106 210.73 285.141 210.761C285.175 210.792 285.202 210.83 285.221 210.872C285.239 210.915 285.249 210.961 285.249 211.007V211.075C285.249 211.325 285.146 211.461 284.919 211.461L284.885 211.472ZM286.872 210.553C286.894 210.484 286.938 210.424 286.997 210.382L287.145 210.28H287.213C287.227 210.273 287.242 210.269 287.258 210.268C287.274 210.268 287.289 210.271 287.304 210.278C287.318 210.284 287.33 210.294 287.34 210.306C287.35 210.319 287.357 210.333 287.361 210.348C287.393 210.399 287.41 210.458 287.41 210.519C287.41 210.579 287.393 210.638 287.361 210.689C287.312 210.728 287.252 210.749 287.19 210.749C287.128 210.749 287.068 210.728 287.02 210.689C287.02 210.689 286.952 210.689 286.94 210.689C286.929 210.689 286.918 210.587 286.918 210.553H286.872ZM287.361 211.075C287.508 211.075 287.576 211.188 287.576 211.291C287.576 211.393 287.508 211.45 287.361 211.484C287.213 211.518 287.145 211.484 287.145 211.291C287.145 211.098 287.258 211.052 287.406 211.075H287.361ZM285.385 203.627C285.623 203.627 285.748 203.774 285.748 204.058C285.754 204.107 285.748 204.157 285.732 204.203C285.715 204.25 285.689 204.292 285.654 204.327C285.619 204.362 285.577 204.389 285.53 204.405C285.484 204.421 285.434 204.427 285.385 204.422C285.169 204.422 285.067 204.297 285.067 204.058C285.067 203.82 285.146 203.627 285.385 203.627ZM282.342 185.529L282.717 185.188L283.091 184.847L283.341 184.609H283.432H283.557H283.67H283.739L283.512 184.859C283.398 184.984 283.273 185.108 283.148 185.222L282.774 185.563C282.689 185.641 282.594 185.706 282.49 185.756L282.308 185.824H282.217C282.176 185.812 282.133 185.812 282.092 185.824L282.342 185.529ZM285.385 214.583C285.169 214.583 285.067 214.47 285.067 214.22C285.067 213.97 285.169 213.834 285.385 213.834C285.601 213.834 285.748 213.959 285.748 214.22C285.756 214.269 285.752 214.32 285.736 214.368C285.721 214.415 285.694 214.459 285.659 214.494C285.624 214.529 285.58 214.556 285.533 214.572C285.485 214.587 285.434 214.591 285.385 214.583ZM286.009 212.88L285.657 213.244C285.581 213.326 285.488 213.392 285.385 213.437L286.588 211.926C286.584 211.96 286.584 211.995 286.588 212.029C286.591 212.063 286.591 212.097 286.588 212.131C286.594 212.161 286.594 212.192 286.588 212.222V212.278C286.588 212.278 286.464 212.415 286.35 212.528C286.236 212.642 286.123 212.755 285.987 212.88H286.009ZM287.429 214.583C287.213 214.583 287.099 214.47 287.099 214.22C287.099 213.97 287.213 213.834 287.429 213.834H286.52C286.527 213.763 286.547 213.694 286.577 213.63C286.588 213.566 286.588 213.5 286.577 213.437L286.747 213.051C286.798 212.9 286.884 212.764 286.997 212.653C286.941 212.888 286.941 213.133 286.997 213.368C287.014 213.482 287.065 213.588 287.145 213.672C287.224 213.755 287.327 213.812 287.44 213.834C287.656 213.834 287.758 213.959 287.758 214.22C287.758 214.481 287.656 214.583 287.406 214.583H287.429ZM288.212 213.051C288.212 213.051 288.133 213.051 288.11 212.971C288.097 212.865 288.097 212.759 288.11 212.653C288.11 212.358 288.11 212.233 288.246 212.256C288.318 212.292 288.377 212.35 288.416 212.421C288.455 212.492 288.471 212.573 288.462 212.653C288.405 212.892 288.337 213.062 288.189 213.062L288.212 213.051ZM288.212 210.326C288.03 210.326 287.928 210.189 287.928 209.928C287.928 209.667 288.03 209.542 288.212 209.542C288.394 209.542 288.541 209.667 288.541 209.928C288.541 210.189 288.405 210.326 288.189 210.326H288.212ZM272.85 211.575L273.009 211.665C272.987 211.638 272.959 211.616 272.928 211.601C272.897 211.585 272.862 211.576 272.827 211.575H272.85ZM272.85 211.575L273.009 211.665C272.987 211.638 272.959 211.616 272.928 211.601C272.897 211.585 272.862 211.576 272.827 211.575H272.85ZM272.85 211.575L273.009 211.665C272.987 211.638 272.959 211.616 272.928 211.601C272.897 211.585 272.862 211.576 272.827 211.575H272.85ZM272.85 211.575L273.009 211.665C272.987 211.638 272.959 211.616 272.928 211.601C272.897 211.585 272.862 211.576 272.827 211.575H272.85ZM272.85 211.575L273.009 211.665C272.987 211.638 272.959 211.616 272.928 211.601C272.897 211.585 272.862 211.576 272.827 211.575H272.85ZM272.85 211.575L273.009 211.665C272.987 211.638 272.959 211.616 272.928 211.601C272.897 211.585 272.862 211.576 272.827 211.575H272.85ZM272.85 211.575L273.009 211.665C272.987 211.638 272.959 211.616 272.928 211.601C272.897 211.585 272.862 211.576 272.827 211.575H272.85ZM272.85 211.575L273.009 211.665C272.987 211.638 272.959 211.616 272.928 211.601C272.897 211.585 272.862 211.576 272.827 211.575H272.85ZM272.85 211.575L273.009 211.665C272.987 211.638 272.959 211.616 272.928 211.601C272.897 211.585 272.862 211.576 272.827 211.575H272.85ZM272.85 211.575L273.009 211.665C272.987 211.638 272.959 211.616 272.928 211.601C272.897 211.585 272.862 211.576 272.827 211.575H272.85ZM272.85 211.575L273.009 211.665C272.987 211.638 272.959 211.616 272.928 211.601C272.897 211.585 272.862 211.576 272.827 211.575H272.85ZM272.85 211.575L273.009 211.665C272.987 211.638 272.959 211.616 272.928 211.601C272.897 211.585 272.862 211.576 272.827 211.575H272.85ZM272.85 211.575L273.009 211.665C272.987 211.638 272.959 211.616 272.928 211.601C272.897 211.585 272.862 211.576 272.827 211.575H272.85ZM272.85 211.575L273.009 211.665C272.987 211.638 272.959 211.616 272.928 211.601C272.897 211.585 272.862 211.576 272.827 211.575H272.85ZM272.85 211.575L273.009 211.665C272.987 211.638 272.959 211.616 272.928 211.601C272.897 211.585 272.862 211.576 272.827 211.575H272.85ZM272.85 211.575L273.009 211.665C272.987 211.638 272.959 211.616 272.928 211.601C272.897 211.585 272.862 211.576 272.827 211.575H272.85ZM272.85 211.575L273.009 211.665C272.987 211.638 272.959 211.616 272.928 211.601C272.897 211.585 272.862 211.576 272.827 211.575H272.85ZM272.85 211.575L273.009 211.665C272.987 211.638 272.959 211.616 272.928 211.601C272.897 211.585 272.862 211.576 272.827 211.575H272.85ZM272.85 211.575L273.009 211.665C272.987 211.638 272.959 211.616 272.928 211.601C272.897 211.585 272.862 211.576 272.827 211.575H272.85ZM272.85 211.575L273.009 211.665C272.987 211.638 272.959 211.616 272.928 211.601C272.897 211.585 272.862 211.576 272.827 211.575H272.85ZM272.85 211.575L273.009 211.665C272.987 211.638 272.959 211.616 272.928 211.601C272.897 211.585 272.862 211.576 272.827 211.575H272.85ZM272.85 211.575L273.009 211.665C272.987 211.638 272.959 211.616 272.928 211.601C272.897 211.585 272.862 211.576 272.827 211.575H272.85ZM272.85 211.575L273.009 211.665C272.987 211.638 272.959 211.616 272.928 211.601C272.897 211.585 272.862 211.576 272.827 211.575H272.85ZM272.85 211.575L273.009 211.665C272.987 211.638 272.959 211.616 272.928 211.601C272.897 211.585 272.862 211.576 272.827 211.575H272.85ZM272.85 211.575L273.009 211.665C272.987 211.638 272.959 211.616 272.928 211.601C272.897 211.585 272.862 211.576 272.827 211.575H272.85ZM272.85 211.575L273.009 211.665C272.987 211.638 272.959 211.616 272.928 211.601C272.897 211.585 272.862 211.576 272.827 211.575H272.85ZM272.85 211.575L273.009 211.665C272.987 211.638 272.959 211.616 272.928 211.601C272.897 211.585 272.862 211.576 272.827 211.575H272.85ZM272.85 211.575L273.009 211.665C272.987 211.638 272.959 211.616 272.928 211.601C272.897 211.585 272.862 211.576 272.827 211.575H272.85ZM272.85 211.575L273.009 211.665C272.987 211.638 272.959 211.616 272.928 211.601C272.897 211.585 272.862 211.576 272.827 211.575H272.85ZM272.85 211.575L273.009 211.665C272.987 211.638 272.959 211.616 272.928 211.601C272.897 211.585 272.862 211.576 272.827 211.575H272.85ZM272.85 211.575L273.009 211.665C272.987 211.638 272.959 211.616 272.928 211.601C272.897 211.585 272.862 211.576 272.827 211.575H272.85ZM272.85 211.575L273.009 211.665C272.987 211.638 272.959 211.616 272.928 211.601C272.897 211.585 272.862 211.576 272.827 211.575H272.85ZM277.324 188.617C277.586 188.396 277.867 188.199 278.164 188.026C278.493 187.822 278.834 187.629 279.163 187.447L279.435 184.2H273.758L273.225 188.083C273.526 188.182 273.821 188.295 274.11 188.424C274.498 188.585 274.877 188.767 275.246 188.969C275.575 189.15 275.859 189.309 276.109 189.423C275.866 189.664 275.599 189.881 275.314 190.07C275.064 190.207 274.781 190.269 274.496 190.252H274.258H274.099L274.496 189.457C274.327 189.412 274.163 189.347 274.008 189.264L273.259 188.923H273.191L272.964 190.842L272.759 192.488L271.397 203.729C271.645 203.787 271.878 203.9 272.078 204.058C272.396 204.332 272.655 204.668 272.839 205.046C273.032 205.432 273.213 205.829 273.384 206.261C273.533 206.681 273.764 207.067 274.065 207.396C274.404 207.83 274.784 208.229 275.2 208.588C275.607 208.938 275.987 209.317 276.336 209.724C276.677 210.087 276.96 210.501 277.176 210.95C277.405 211.448 277.518 211.992 277.505 212.54H276.608C276.613 212.678 276.648 212.814 276.71 212.937C276.778 213.07 276.828 213.211 276.858 213.357C276.871 213.413 276.866 213.472 276.844 213.525C276.821 213.578 276.783 213.623 276.733 213.652C276.504 213.727 276.258 213.727 276.029 213.652C276.244 213.164 276.39 212.648 276.461 212.119V211.938C276.423 211.51 276.275 211.099 276.029 210.746C275.688 210.187 275.308 209.652 274.894 209.145C274.451 208.577 273.986 208.009 273.486 207.374C272.986 206.738 272.51 206.238 272.067 205.693L271.181 204.649L270.613 209.326V214.765H277.698V213.505H277.199C277.297 213.332 277.377 213.149 277.437 212.96C277.514 212.763 277.578 212.562 277.63 212.358C277.63 212.21 277.63 211.995 277.698 211.711V203.979L278.527 194.078L278.788 190.876L279.004 188.288C278.697 188.441 278.383 188.577 278.062 188.696C277.8 188.818 277.526 188.909 277.244 188.969C277.161 188.979 277.077 188.979 276.994 188.969H276.847C276.847 188.969 276.847 188.855 276.994 188.776C277.079 188.694 277.186 188.639 277.301 188.617H277.324ZM276.007 214.197C276.034 214.122 276.086 214.058 276.154 214.016C276.212 213.965 276.277 213.923 276.347 213.891C276.347 213.891 276.449 213.891 276.472 213.959C276.51 214.005 276.53 214.064 276.53 214.123C276.53 214.183 276.51 214.242 276.472 214.288C276.414 214.328 276.344 214.35 276.273 214.35C276.202 214.35 276.133 214.328 276.075 214.288C276.075 214.288 275.984 214.197 276.007 214.197ZM275.609 212.744C275.848 212.744 275.972 212.892 275.972 213.175C275.978 213.224 275.973 213.273 275.956 213.319C275.94 213.366 275.913 213.407 275.878 213.441C275.843 213.475 275.8 213.501 275.754 213.516C275.707 213.531 275.658 213.535 275.609 213.527C275.405 213.527 275.291 213.414 275.291 213.175C275.291 212.937 275.405 212.721 275.609 212.721V212.744ZM275.405 214.197C275.405 214.197 275.337 214.299 275.2 214.345C275.064 214.39 275.007 214.345 275.007 214.197C275.007 214.05 275.007 213.936 275.189 213.982C275.371 214.027 275.405 214.061 275.405 214.197ZM274.428 208.861C274.644 208.861 274.758 208.997 274.758 209.258C274.758 209.519 274.644 209.656 274.428 209.656C274.213 209.656 274.076 209.519 274.076 209.258C274.076 208.997 274.19 208.815 274.428 208.815V208.861ZM274.428 209.996C274.644 209.996 274.758 210.133 274.758 210.394C274.758 210.655 274.644 210.791 274.428 210.791C274.213 210.791 274.076 210.655 274.076 210.394C274.076 210.133 274.19 209.996 274.428 209.996ZM273.179 208.032C273.395 208.032 273.497 208.18 273.497 208.464C273.497 208.747 273.395 208.815 273.179 208.815C272.964 208.815 272.861 208.702 272.861 208.464C272.861 208.225 272.964 208.032 273.179 208.032ZM272.373 210.791H273.361C273.633 210.802 273.903 210.84 274.167 210.905C274.417 210.951 274.658 211.036 274.882 211.154C274.972 211.189 275.05 211.249 275.104 211.328C275.159 211.407 275.189 211.501 275.189 211.597V212.131C274.893 212.128 274.597 212.105 274.303 212.063C273.983 212.015 273.668 211.939 273.361 211.836L272.986 211.688C273.055 211.775 273.087 211.885 273.077 211.995C273.077 212.256 272.975 212.381 272.782 212.381C272.589 212.381 272.43 212.256 272.43 211.995C272.43 211.733 272.555 211.597 272.782 211.597C272.674 211.548 272.571 211.487 272.475 211.416C272.237 211.271 272.044 211.063 271.919 210.814L272.373 210.791ZM273.895 212.381C273.895 212.619 273.804 212.744 273.611 212.744C273.562 212.749 273.512 212.744 273.466 212.727C273.419 212.711 273.377 212.684 273.342 212.649C273.307 212.615 273.281 212.572 273.264 212.526C273.248 212.479 273.242 212.43 273.248 212.381C273.248 212.119 273.372 211.995 273.611 211.995C273.849 211.995 273.895 212.097 273.895 212.358V212.381ZM272.759 214.322C272.759 214.583 272.657 214.708 272.441 214.708C272.226 214.708 272.112 214.583 272.112 214.322C272.112 214.061 272.226 213.959 272.441 213.959C272.657 213.959 272.714 214.061 272.714 214.299L272.759 214.322ZM273.032 211.688C272.992 211.639 272.935 211.606 272.873 211.597L273.032 211.688ZM272.873 211.597L273.032 211.688C273.01 211.654 272.979 211.626 272.944 211.606C272.908 211.586 272.868 211.575 272.827 211.575L272.873 211.597ZM272.873 211.597L273.032 211.688C273.01 211.654 272.979 211.626 272.944 211.606C272.908 211.586 272.868 211.575 272.827 211.575L272.873 211.597ZM272.873 211.597L273.032 211.688C273.01 211.654 272.979 211.626 272.944 211.606C272.908 211.586 272.868 211.575 272.827 211.575L272.873 211.597ZM272.873 211.597L273.032 211.688C273.01 211.654 272.979 211.626 272.944 211.606C272.908 211.586 272.868 211.575 272.827 211.575L272.873 211.597ZM272.873 211.597L273.032 211.688C273.01 211.654 272.979 211.626 272.944 211.606C272.908 211.586 272.868 211.575 272.827 211.575L272.873 211.597ZM272.873 211.597L273.032 211.688C273.01 211.654 272.979 211.626 272.944 211.606C272.908 211.586 272.868 211.575 272.827 211.575L272.873 211.597ZM272.873 211.597L273.032 211.688C273.01 211.654 272.979 211.626 272.944 211.606C272.908 211.586 272.868 211.575 272.827 211.575L272.873 211.597ZM272.873 211.597L273.032 211.688C273.01 211.654 272.979 211.626 272.944 211.606C272.908 211.586 272.868 211.575 272.827 211.575L272.873 211.597ZM272.873 211.597L273.032 211.688C273.01 211.654 272.979 211.626 272.944 211.606C272.908 211.586 272.868 211.575 272.827 211.575L272.873 211.597ZM272.873 211.597L273.032 211.688C273.01 211.654 272.979 211.626 272.944 211.606C272.908 211.586 272.868 211.575 272.827 211.575L272.873 211.597ZM272.873 211.597L273.032 211.688C273.01 211.654 272.979 211.626 272.944 211.606C272.908 211.586 272.868 211.575 272.827 211.575L272.873 211.597ZM272.873 211.597L273.032 211.688C273.01 211.654 272.979 211.626 272.944 211.606C272.908 211.586 272.868 211.575 272.827 211.575L272.873 211.597ZM272.873 211.597L273.032 211.688C273.01 211.654 272.979 211.626 272.944 211.606C272.908 211.586 272.868 211.575 272.827 211.575L272.873 211.597ZM272.873 211.597L273.032 211.688C273.01 211.654 272.979 211.626 272.944 211.606C272.908 211.586 272.868 211.575 272.827 211.575L272.873 211.597ZM272.873 211.597L273.032 211.688C273.01 211.654 272.979 211.626 272.944 211.606C272.908 211.586 272.868 211.575 272.827 211.575L272.873 211.597ZM272.873 211.597L273.032 211.688C273.01 211.654 272.979 211.626 272.944 211.606C272.908 211.586 272.868 211.575 272.827 211.575L272.873 211.597ZM272.873 211.597L273.032 211.688C273.01 211.654 272.979 211.626 272.944 211.606C272.908 211.586 272.868 211.575 272.827 211.575L272.873 211.597ZM272.873 211.597L273.032 211.688C273.01 211.654 272.979 211.626 272.944 211.606C272.908 211.586 272.868 211.575 272.827 211.575L272.873 211.597ZM272.873 211.597L273.032 211.688C273.01 211.654 272.979 211.626 272.944 211.606C272.908 211.586 272.868 211.575 272.827 211.575L272.873 211.597ZM272.873 211.597L273.032 211.688C273.01 211.654 272.979 211.626 272.944 211.606C272.908 211.586 272.868 211.575 272.827 211.575L272.873 211.597ZM272.873 211.597L273.032 211.688C273.01 211.654 272.979 211.626 272.944 211.606C272.908 211.586 272.868 211.575 272.827 211.575L272.873 211.597ZM272.873 211.597L273.032 211.688C273.01 211.654 272.979 211.626 272.944 211.606C272.908 211.586 272.868 211.575 272.827 211.575L272.873 211.597ZM272.873 211.597L273.032 211.688C273.01 211.654 272.979 211.626 272.944 211.606C272.908 211.586 272.868 211.575 272.827 211.575L272.873 211.597ZM272.873 211.597L273.032 211.688C273.01 211.654 272.979 211.626 272.944 211.606C272.908 211.586 272.868 211.575 272.827 211.575L272.873 211.597ZM272.873 211.597L273.032 211.688C273.01 211.654 272.979 211.626 272.944 211.606C272.908 211.586 272.868 211.575 272.827 211.575L272.873 211.597ZM272.873 211.597L273.032 211.688C273.01 211.654 272.979 211.626 272.944 211.606C272.908 211.586 272.868 211.575 272.827 211.575L272.873 211.597ZM272.873 211.597L273.032 211.688C273.01 211.654 272.979 211.626 272.944 211.606C272.908 211.586 272.868 211.575 272.827 211.575L272.873 211.597ZM272.873 211.597L273.032 211.688C273.01 211.654 272.979 211.626 272.944 211.606C272.908 211.586 272.868 211.575 272.827 211.575L272.873 211.597ZM272.873 211.597L273.032 211.688C273.01 211.654 272.979 211.626 272.944 211.606C272.908 211.586 272.868 211.575 272.827 211.575L272.873 211.597ZM272.873 211.597L273.032 211.688C273.01 211.654 272.979 211.626 272.944 211.606C272.908 211.586 272.868 211.575 272.827 211.575L272.873 211.597Z" fill="#190232"/>
<path d="M298.34 205.818L298.873 206.181L299.407 206.919V184.211H291.902V184.359H291.993C292.05 184.359 292.129 184.359 292.243 184.529C292.356 184.7 292.481 184.791 292.606 184.938C292.722 185.094 292.829 185.257 292.924 185.426C293.001 185.53 293.052 185.651 293.072 185.778C293.072 185.778 293.072 185.778 292.924 185.778L292.606 185.551L292.197 185.245C292.129 185.178 292.042 185.134 291.948 185.12H291.857V195.872C291.869 195.94 291.869 196.009 291.857 196.076C291.864 196.137 291.864 196.198 291.857 196.258V214.765H295.41C296.194 214.765 296.932 214.765 297.602 214.674C298.272 214.583 298.737 214.549 299.362 214.436V207.975C299.292 207.865 299.217 207.759 299.135 207.657L298.453 206.806C298.294 206.59 298.111 206.392 297.908 206.215V205.818H298.34ZM295.99 186.516H296.489C296.5 186.683 296.458 186.849 296.368 186.99C296.278 187.131 296.145 187.24 295.99 187.3V186.516ZM296.069 198.029C296.117 198.024 296.165 198.029 296.21 198.045C296.255 198.061 296.296 198.086 296.33 198.12C296.364 198.154 296.39 198.195 296.405 198.24C296.421 198.286 296.426 198.334 296.421 198.381C296.421 198.642 296.296 198.767 296.069 198.767C295.842 198.767 295.74 198.642 295.74 198.381C295.74 198.12 295.853 197.984 296.069 197.984V198.029ZM294.729 198.597C294.689 198.54 294.639 198.49 294.582 198.449C294.512 198.385 294.454 198.308 294.411 198.222C294.343 198.109 294.275 197.95 294.173 197.734C294.086 197.561 294.021 197.378 293.98 197.189C293.9 196.894 293.844 196.678 293.821 196.565H293.912H294.037C294.127 196.565 294.332 196.803 294.661 197.28C294.99 197.757 295.32 198.29 295.672 198.915C296.024 199.539 296.342 200.13 296.614 200.72C296.82 201.09 296.958 201.494 297.023 201.912H296.489L296.296 201.56L295.831 200.72C295.66 200.391 295.467 200.062 295.286 199.698C295.104 199.335 294.934 199.051 294.82 198.801C294.809 198.712 294.778 198.627 294.729 198.552V198.597ZM297.613 212.278C297.544 212.422 297.456 212.555 297.352 212.676H297.261H297.136C297.011 212.676 296.864 212.551 296.682 212.301C296.5 212.051 296.319 211.779 296.114 211.461C295.91 211.143 295.728 210.859 295.569 210.575C295.47 210.375 295.335 210.195 295.172 210.042H295.331H295.603C295.776 210.078 295.934 210.165 296.058 210.292C296.287 210.464 296.503 210.654 296.705 210.859L297.329 211.484C297.481 211.639 297.64 211.787 297.806 211.926C297.758 212.038 297.692 212.141 297.613 212.233V212.278ZM297.806 187.3C297.572 187.3 297.39 187.141 297.261 186.823C297.159 186.55 297.004 186.299 296.807 186.085H296.977H297.17C297.384 186.079 297.598 186.102 297.806 186.153C298.03 186.237 298.238 186.36 298.419 186.516C298.39 186.659 298.34 186.797 298.272 186.925C298.22 187.069 298.135 187.197 298.022 187.3H297.954H297.806Z" fill="#190232"/>
<path d="M307.468 210.791C306.798 211.135 306.146 211.514 305.516 211.926C305.01 212.244 304.548 212.625 304.142 213.062H305.709V213.482L302.904 214.686H309.66C309.817 214.593 309.946 214.459 310.034 214.299C310.125 214.136 310.19 213.96 310.227 213.777C310.258 213.611 310.303 213.447 310.364 213.289C310.364 213.209 310.364 213.107 310.364 212.971V209.463L309.478 209.815C308.792 210.106 308.122 210.432 307.468 210.791ZM306.674 214.299C306.65 214.284 306.63 214.264 306.614 214.241C306.598 214.217 306.588 214.191 306.583 214.163C306.583 214.061 306.583 214.004 306.764 214.004C306.946 214.004 307.003 214.004 306.98 214.152C306.971 214.183 306.956 214.212 306.936 214.236C306.915 214.261 306.889 214.281 306.86 214.295C306.831 214.309 306.8 214.316 306.767 214.317C306.735 214.318 306.703 214.312 306.674 214.299ZM308.445 212.029C308.507 211.983 308.584 211.963 308.661 211.972C308.706 211.964 308.752 211.967 308.796 211.981C308.839 211.994 308.879 212.018 308.911 212.051C308.943 212.083 308.967 212.123 308.981 212.166C308.995 212.21 308.998 212.256 308.99 212.301C308.99 212.528 308.876 212.653 308.661 212.653H308.524C308.461 212.627 308.408 212.58 308.373 212.521C308.338 212.461 308.324 212.392 308.331 212.324C308.312 212.262 308.313 212.196 308.333 212.135C308.353 212.074 308.393 212.021 308.445 211.983V212.029ZM307.854 212.88C307.882 212.806 307.934 212.743 308.002 212.701C308.07 212.66 308.15 212.643 308.229 212.653C308.279 212.65 308.329 212.658 308.376 212.676C308.423 212.693 308.466 212.72 308.502 212.755C308.565 212.84 308.598 212.945 308.592 213.051C308.598 213.1 308.592 213.149 308.576 213.196C308.559 213.242 308.533 213.285 308.498 213.319C308.463 213.354 308.421 213.381 308.374 213.397C308.328 213.414 308.278 213.419 308.229 213.414C308.282 213.408 308.336 213.416 308.385 213.436C308.434 213.455 308.478 213.487 308.513 213.527C308.554 213.588 308.578 213.659 308.581 213.732C308.587 213.758 308.587 213.785 308.581 213.811C308.586 213.86 308.581 213.91 308.564 213.956C308.548 214.003 308.522 214.045 308.487 214.08C308.452 214.115 308.409 214.142 308.363 214.158C308.316 214.174 308.267 214.18 308.218 214.175C307.957 214.175 307.82 214.05 307.82 213.823C307.816 213.767 307.823 213.712 307.841 213.659C307.858 213.606 307.886 213.558 307.923 213.516C308.006 213.45 308.112 213.418 308.218 213.425C307.945 213.425 307.82 213.3 307.82 213.062C307.815 213.005 307.815 212.948 307.82 212.892L307.854 212.88ZM304.04 208.52C303.669 208.515 303.302 208.601 302.972 208.77H302.904V212.755C303.593 212.537 304.262 212.26 304.902 211.926C305.606 211.563 306.299 211.185 306.98 210.791C307.65 210.371 308.297 209.951 308.91 209.542L310.409 208.543H304.04V208.52Z" fill="#190232"/>
<path d="M256.716 225.653H259.952L260.872 221.112H254.729L252.458 222.588L249.824 224.416V226.687C249.97 226.791 250.081 226.938 250.142 227.107C250.232 227.356 250.232 227.629 250.142 227.879H249.881V228.503H248.507L248.076 233.397H256.024L256.432 233.17C256.643 233.017 256.898 232.937 257.159 232.943C257.318 232.943 257.522 233.102 257.772 233.397H259.464L259.873 228.855L258.896 228.605L258.397 228.526H256.716V225.653ZM254.513 223.837C254.513 224.087 254.377 224.211 254.093 224.211C254.042 224.219 253.99 224.215 253.941 224.199C253.892 224.183 253.848 224.155 253.811 224.119C253.775 224.082 253.748 224.038 253.732 223.989C253.715 223.94 253.711 223.888 253.719 223.837C253.719 223.564 253.844 223.428 254.093 223.428C254.15 223.419 254.207 223.422 254.262 223.439C254.316 223.456 254.366 223.486 254.407 223.526C254.448 223.566 254.479 223.615 254.497 223.669C254.516 223.723 254.521 223.78 254.513 223.837ZM256.682 251.37V234.634C256.246 234.451 255.788 234.325 255.32 234.26C254.887 234.197 254.451 234.163 254.014 234.158C253.492 234.158 253.23 234.158 253.23 234.067H249.824V253.823H256.716V251.552L256.228 251.79C256.275 251.705 256.337 251.628 256.41 251.563C256.484 251.478 256.577 251.412 256.682 251.37ZM253.923 251.245C254.051 251.232 254.181 251.232 254.309 251.245C254.604 251.245 254.752 251.245 254.718 251.416C254.684 251.586 254.582 251.62 254.309 251.62C254.037 251.62 253.855 251.552 253.798 251.416C253.741 251.279 253.821 251.268 253.923 251.245ZM250.04 243.468H250.96C251.51 243.469 252.059 243.534 252.595 243.661C252.812 243.696 253.02 243.776 253.206 243.895C253.391 244.014 253.55 244.17 253.673 244.353H253.174H252.72H251.97C251.542 244.344 251.117 244.272 250.71 244.138C250.267 244.047 250.04 243.808 250.04 243.468ZM253.219 249.781C253.219 250.064 253.094 250.201 252.844 250.201C252.595 250.201 252.47 250.064 252.47 249.781C252.47 249.497 252.595 249.36 252.844 249.36C253.094 249.36 253.219 249.508 253.219 249.781ZM251.459 248.032C251.459 247.748 251.573 247.612 251.8 247.612C252.027 247.612 252.175 247.748 252.175 248.032C252.182 248.083 252.178 248.135 252.162 248.184C252.146 248.233 252.118 248.278 252.082 248.314C252.045 248.35 252.001 248.378 251.952 248.394C251.903 248.41 251.851 248.414 251.8 248.407C251.573 248.407 251.459 248.282 251.459 248.032ZM254.718 252.574C254.554 252.655 254.377 252.705 254.196 252.721C253.897 252.741 253.597 252.741 253.299 252.721C253.015 252.74 252.731 252.74 252.447 252.721C252.266 252.703 252.089 252.653 251.925 252.574C251.811 252.574 251.925 252.471 252.231 252.449C252.587 252.431 252.943 252.431 253.299 252.449C253.677 252.429 254.056 252.429 254.434 252.449C254.729 252.483 254.831 252.528 254.729 252.585L254.718 252.574ZM255.853 250.939C255.853 250.723 255.989 250.609 256.273 250.609C256.318 250.601 256.365 250.604 256.408 250.618C256.452 250.632 256.492 250.656 256.524 250.688C256.556 250.72 256.58 250.76 256.594 250.804C256.608 250.847 256.611 250.894 256.603 250.939C256.603 251.223 256.5 251.359 256.273 251.359C256.218 251.366 256.161 251.361 256.108 251.343C256.055 251.325 256.007 251.295 255.968 251.256C255.928 251.216 255.898 251.168 255.88 251.115C255.863 251.062 255.857 251.005 255.865 250.95L255.853 250.939ZM256.489 234.101H256.762H256.489Z" fill="#190232"/>
<path d="M268.899 246.363L269.16 246.522V228.492H263.097L263.336 228.753L263.653 229.15C263.717 229.226 263.764 229.316 263.79 229.412C263.79 229.48 263.744 229.48 263.653 229.412C263.542 229.362 263.435 229.301 263.336 229.23C263.227 229.146 263.114 229.071 262.995 229.003C262.919 228.951 262.834 228.913 262.745 228.889C262.541 228.889 262.439 228.787 262.439 228.549V228.458H262.268V237.791H262.336C262.563 237.791 262.677 237.893 262.677 238.075C262.682 238.121 262.677 238.167 262.662 238.211C262.647 238.255 262.622 238.295 262.589 238.328C262.557 238.36 262.517 238.385 262.473 238.4C262.429 238.416 262.382 238.421 262.336 238.415H262.268V253.868H267.945H268.195L269.126 253.777V247.305L269.024 247.192C268.863 247.012 268.684 246.848 268.49 246.704V246.363H268.899ZM266.628 230.07H267.105C267.107 230.217 267.062 230.36 266.976 230.478C266.89 230.597 266.768 230.685 266.628 230.729V230.07ZM266.628 239.755C266.867 239.755 266.98 239.869 266.98 240.096C266.98 240.323 266.867 240.414 266.628 240.414C266.39 240.414 266.322 240.311 266.322 240.096C266.322 239.88 266.481 239.755 266.685 239.755H266.628ZM265.22 240.152C265.039 239.971 264.896 239.755 264.8 239.517C264.712 239.377 264.646 239.223 264.607 239.062C264.528 238.813 264.482 238.631 264.46 238.54H264.539H264.664C264.755 238.54 264.959 238.745 265.266 239.153C265.572 239.562 265.913 240.016 266.253 240.538C266.594 241.061 266.912 241.56 267.173 242.049C267.369 242.361 267.504 242.708 267.571 243.07H267.048L266.855 242.787L266.412 242.071C266.231 241.799 266.06 241.504 265.879 241.208C265.697 240.913 265.538 240.652 265.425 240.448C265.408 240.336 265.356 240.233 265.277 240.152H265.22ZM268.138 251.79C268.075 251.923 267.986 252.043 267.877 252.142H267.673C267.559 252.142 267.412 252.051 267.241 251.836C267.071 251.62 266.878 251.393 266.685 251.132C266.492 250.871 266.31 250.609 266.151 250.371C266.049 250.195 265.919 250.038 265.765 249.905H265.924H266.151C266.311 249.934 266.459 250.005 266.583 250.11L267.219 250.53L267.843 251.052C267.991 251.182 268.146 251.304 268.309 251.416C268.291 251.546 268.253 251.672 268.195 251.79H268.138ZM268.354 230.763C268.232 230.755 268.114 230.711 268.017 230.636C267.92 230.561 267.847 230.459 267.809 230.343C267.714 230.111 267.571 229.902 267.389 229.729H267.536H267.73C267.941 229.722 268.152 229.749 268.354 229.809C268.565 229.882 268.764 229.985 268.944 230.116C268.917 230.234 268.867 230.346 268.797 230.445C268.742 230.57 268.66 230.682 268.558 230.774H268.49C268.445 230.781 268.398 230.778 268.354 230.763ZM265.72 221.112L262.234 221.191V225.472C262.234 225.472 262.234 225.585 262.37 225.676C262.425 225.747 262.495 225.805 262.575 225.846H263.154C263.438 225.846 263.756 225.846 264.108 225.846H265.084H269.092V221.112H265.72Z" fill="#190232"/>
<path d="M272.657 228.537V233.783H282.353V228.537H272.657ZM279.469 238.188C279.467 238.457 279.501 238.724 279.572 238.983V237.507C279.499 237.727 279.461 237.957 279.458 238.188H279.469ZM279.061 236.349C279.162 236.037 279.287 235.733 279.435 235.441C279.47 235.362 279.516 235.29 279.572 235.225V234.509H272.668V251.098L273.111 250.973H273.906C273.73 251.062 273.543 251.127 273.35 251.166L272.725 251.325V253.868H277.732V253.777C277.732 253.573 277.846 253.471 278.073 253.471C278.255 253.471 278.357 253.573 278.357 253.777C278.363 253.807 278.363 253.838 278.357 253.868H279.64V240.584C279.485 240.571 279.329 240.571 279.174 240.584C278.952 240.626 278.742 240.719 278.561 240.856C278.346 240.784 278.146 240.672 277.971 240.527C277.73 240.343 277.502 240.142 277.289 239.925C277.342 239.933 277.396 239.933 277.448 239.925H277.914H278.084L278.425 240.118C278.533 240.187 278.652 240.237 278.777 240.266C278.853 240.233 278.922 240.187 278.981 240.13C279.064 240.073 279.136 240.004 279.197 239.925V239.755C279.196 239.453 279.118 239.156 278.97 238.892C278.82 238.613 278.742 238.301 278.743 237.984C278.758 237.758 278.793 237.534 278.845 237.314C278.891 236.988 278.959 236.666 279.049 236.349H279.061ZM278.731 253.777C278.595 253.777 278.538 253.777 278.538 253.607C278.538 253.437 278.595 253.425 278.709 253.471C278.822 253.516 278.913 253.561 278.913 253.607C278.913 253.652 278.845 253.754 278.72 253.777H278.731ZM279.129 241.606C279.333 241.606 279.435 241.719 279.435 241.958C279.435 242.196 279.333 242.298 279.129 242.298C278.924 242.298 278.811 242.185 278.811 241.958C278.811 241.731 278.902 241.606 279.117 241.606H279.129ZM278.379 252.801C278.4 252.802 278.421 252.808 278.44 252.817C278.458 252.826 278.475 252.839 278.489 252.855C278.502 252.871 278.513 252.889 278.519 252.909C278.526 252.929 278.529 252.95 278.527 252.971C278.527 253.039 278.527 253.107 278.345 253.141C278.164 253.175 278.175 253.141 278.175 252.971C278.175 252.801 278.243 252.801 278.379 252.801ZM277.63 249.485C277.63 249.485 277.732 249.588 277.8 249.803C277.869 250.019 277.937 250.28 278.005 250.553C278.073 250.825 278.141 251.098 278.198 251.347C278.237 251.497 278.267 251.649 278.289 251.802C278.289 252.029 278.186 252.142 278.005 252.142C277.959 252.148 277.912 252.143 277.868 252.127C277.824 252.112 277.785 252.087 277.752 252.055C277.719 252.022 277.694 251.982 277.679 251.938C277.664 251.894 277.659 251.848 277.664 251.802C277.664 251.802 277.664 251.654 277.664 251.506C277.664 251.359 277.664 251.177 277.664 250.984V250.382C277.664 250.167 277.664 249.985 277.664 249.826C277.664 249.667 277.573 249.497 277.63 249.497V249.485ZM273.304 253.175C273.1 253.175 272.986 253.062 272.986 252.835C272.986 252.608 273.1 252.494 273.304 252.494C273.395 252.494 273.481 252.53 273.545 252.594C273.609 252.658 273.645 252.744 273.645 252.835C273.645 252.925 273.609 253.012 273.545 253.076C273.481 253.14 273.395 253.175 273.304 253.175ZM273.895 251.938C273.702 251.938 273.611 251.824 273.611 251.586C273.611 251.347 273.702 251.313 273.895 251.313C274.088 251.313 274.235 251.404 274.235 251.586C274.235 251.767 274.122 251.949 273.895 251.949V251.938ZM274.917 252.278C274.867 252.287 274.823 252.314 274.793 252.354C274.764 252.394 274.751 252.445 274.758 252.494C274.758 252.721 274.667 252.835 274.474 252.835C274.281 252.835 274.167 252.721 274.167 252.494C274.167 252.267 274.269 252.312 274.462 252.278H274.928C275.019 252.256 275.019 252.267 274.917 252.29V252.278ZM276.052 253.039C275.728 252.652 275.432 252.242 275.166 251.813C274.915 251.419 274.712 250.996 274.565 250.553C274.44 250.167 274.565 249.94 274.758 249.894C274.84 250.124 274.939 250.348 275.053 250.564L275.689 251.949L276.324 253.323V253.391L276.052 253.039ZM286.974 230.093L286.895 232.364L286.214 229.48L284.738 228.492H282.785V248.146L283.012 248.554C283.012 248.702 283.012 248.861 283.012 249.008C283.012 249.883 283.012 250.712 282.921 251.484C282.921 251.938 282.842 252.426 282.773 252.96V253.868H284.249V253.777C284.249 253.664 284.249 253.607 284.397 253.607C284.545 253.607 284.658 253.664 284.613 253.777C284.596 253.809 284.577 253.839 284.556 253.868H289.756V231.853L286.974 230.093ZM285.169 252.562C284.931 252.562 284.817 252.449 284.817 252.244C284.808 252.115 284.778 251.988 284.726 251.87C284.726 251.711 284.636 251.552 284.579 251.393V251.279C284.499 251.064 284.454 250.893 284.408 250.746C284.363 250.598 284.408 250.519 284.408 250.519C284.408 250.519 284.522 250.598 284.647 250.746C284.772 250.893 284.874 251.064 285.01 251.279C285.13 251.47 285.24 251.667 285.339 251.87C285.408 251.985 285.454 252.112 285.476 252.244C285.476 252.426 285.408 252.528 285.26 252.551L285.169 252.562ZM284.817 247.056C284.817 246.829 284.931 246.715 285.169 246.715C285.408 246.715 285.442 246.829 285.442 247.056C285.442 247.283 285.351 247.374 285.169 247.374C284.987 247.374 284.817 247.203 284.817 246.999V247.056ZM286.191 246.715L285.839 246.567L285.487 246.408L284.817 246.068C284.706 246.005 284.588 245.956 284.465 245.92H283.704C283.882 245.846 284.064 245.781 284.249 245.727L284.817 245.568H285.237L285.805 246.091L286.588 246.817C286.588 246.817 286.407 246.749 286.191 246.658V246.715ZM288.178 249.928C288.178 250.11 288.178 250.314 288.087 250.53C287.996 250.746 288.008 250.973 287.962 251.177C287.928 251.311 287.905 251.448 287.894 251.586C287.894 251.802 287.792 251.904 287.588 251.904C287.383 251.904 287.236 251.802 287.236 251.586C287.258 251.445 287.3 251.307 287.36 251.177C287.444 250.973 287.535 250.757 287.633 250.53L287.928 249.928C288.019 249.746 288.087 249.656 288.144 249.656C288.201 249.656 288.201 249.69 288.178 249.871V249.928Z" fill="#190232"/>
<path d="M299.986 238.858L293.094 240.856V245.398L300.066 243.309L302.87 242.469V253.823H304.846L304.97 253.743L307.037 252.347L307.139 252.278L309.228 250.927L309.785 250.553V236.008L299.986 238.858ZM304.346 251.347C304.346 251.154 304.437 251.052 304.607 251.052C304.647 251.047 304.688 251.05 304.727 251.063C304.765 251.076 304.8 251.097 304.828 251.126C304.857 251.155 304.879 251.19 304.891 251.228C304.904 251.266 304.908 251.307 304.902 251.347C304.902 251.518 304.8 251.609 304.607 251.609C304.569 251.613 304.529 251.609 304.493 251.595C304.457 251.581 304.424 251.559 304.399 251.53C304.373 251.501 304.355 251.466 304.345 251.428C304.336 251.39 304.336 251.351 304.346 251.313V251.347ZM303.415 253.119C303.597 253.119 303.653 253.119 303.597 253.266C303.54 253.414 303.517 253.38 303.415 253.38C303.313 253.38 303.313 253.38 303.279 253.255C303.245 253.13 303.301 253.085 303.415 253.085V253.119ZM305.527 242.707C305.355 242.594 305.205 242.452 305.084 242.287C304.963 242.132 304.868 241.96 304.8 241.776C304.739 241.632 304.704 241.478 304.698 241.322V241.163C304.834 241.288 304.982 241.401 305.152 241.538C305.308 241.661 305.455 241.794 305.595 241.935C305.723 242.078 305.84 242.23 305.947 242.389C306.04 242.539 306.091 242.712 306.095 242.889C305.886 242.885 305.685 242.809 305.527 242.673V242.707ZM305.947 243.638C305.953 243.678 305.949 243.719 305.936 243.757C305.923 243.796 305.902 243.831 305.873 243.859C305.844 243.888 305.809 243.91 305.771 243.922C305.733 243.935 305.692 243.939 305.652 243.933C305.481 243.933 305.391 243.831 305.391 243.638C305.391 243.445 305.481 243.354 305.652 243.354C305.822 243.354 305.947 243.411 305.947 243.604V243.638ZM306.356 243.354C306.174 243.354 306.095 243.275 306.095 243.116C306.095 242.957 306.174 242.832 306.356 242.832C306.537 242.832 306.617 242.923 306.617 243.116C306.617 243.309 306.526 243.32 306.356 243.32V243.354ZM306.288 252.71C306.174 252.71 306.117 252.71 306.117 252.562C306.117 252.415 306.174 252.426 306.288 252.449C306.401 252.471 306.469 252.449 306.469 252.562C306.469 252.676 306.412 252.642 306.288 252.676V252.71ZM308.558 250.768C308.399 250.768 308.32 250.678 308.32 250.507C308.32 250.337 308.399 250.246 308.558 250.246C308.717 250.246 308.785 250.326 308.785 250.507C308.785 250.689 308.74 250.734 308.592 250.734L308.558 250.768ZM308.944 249.451C308.727 249.649 308.443 249.754 308.15 249.747C308.15 249.614 308.18 249.483 308.236 249.363C308.293 249.243 308.376 249.138 308.479 249.054C308.713 248.855 309.012 248.749 309.319 248.759C309.312 248.883 309.278 249.005 309.219 249.114C309.161 249.224 309.078 249.32 308.978 249.395L308.944 249.451ZM301.666 253.437H302.075C302.185 253.424 302.295 253.424 302.404 253.437V248.804H299.611V244.263L293.06 246.227V250.53H293.128L294.695 251.586L294.786 251.45C294.888 251.315 294.983 251.175 295.07 251.03C295.136 250.943 295.19 250.847 295.229 250.746C295.229 250.746 295.229 250.746 295.229 250.905C295.21 251.032 295.179 251.157 295.138 251.279C295.084 251.416 295.038 251.557 295.002 251.699C295.008 251.725 295.008 251.753 295.002 251.779L296.069 252.483L298.022 253.8H302.416V253.516C302.307 253.541 302.195 253.541 302.087 253.516C301.909 253.517 301.735 253.466 301.587 253.368C301.587 253.368 301.587 253.425 301.701 253.402L301.666 253.437ZM300.236 252.449C300.24 252.377 300.24 252.305 300.236 252.233C300.232 252.161 300.232 252.089 300.236 252.017C300.236 251.881 300.236 251.745 300.236 251.609C300.236 251.472 300.372 251.381 300.588 251.347V251.609C300.588 251.609 300.52 251.802 300.452 252.029C300.414 252.167 300.353 252.298 300.27 252.415L300.236 252.449ZM300.588 250.507C300.781 250.507 300.883 250.587 300.883 250.768C300.883 250.95 300.781 251.052 300.588 251.052C300.395 251.052 300.327 250.961 300.327 250.768C300.323 250.731 300.329 250.693 300.343 250.658C300.358 250.624 300.381 250.593 300.41 250.57C300.439 250.546 300.474 250.53 300.511 250.523C300.548 250.516 300.586 250.518 300.622 250.53L300.588 250.507ZM301.087 251.87C301.07 251.803 301.07 251.732 301.087 251.665C301.087 251.665 301.167 251.586 301.201 251.665C301.256 251.681 301.303 251.716 301.335 251.764C301.366 251.812 301.379 251.87 301.371 251.926C301.371 252.097 301.371 252.199 301.201 252.222C301.031 252.244 301.121 252.222 301.087 252.142C301.064 252.039 301.076 251.931 301.121 251.836L301.087 251.87ZM299.305 249.917C299.498 249.917 299.6 249.996 299.6 250.178C299.6 250.36 299.498 250.439 299.305 250.439C299.112 250.439 299.078 250.348 299.078 250.178C299.078 250.008 299.191 249.883 299.339 249.883L299.305 249.917ZM299.01 251.54C299.045 251.535 299.082 251.537 299.116 251.548C299.151 251.559 299.182 251.578 299.207 251.604C299.233 251.629 299.252 251.661 299.263 251.695C299.274 251.729 299.277 251.766 299.271 251.802C299.271 251.871 299.243 251.937 299.194 251.986C299.145 252.035 299.079 252.063 299.01 252.063C298.94 252.063 298.874 252.035 298.825 251.986C298.776 251.937 298.749 251.871 298.749 251.802C298.743 251.766 298.745 251.729 298.756 251.695C298.767 251.661 298.786 251.629 298.812 251.604C298.837 251.578 298.869 251.559 298.903 251.548C298.938 251.537 298.974 251.535 299.01 251.54ZM298.658 251.245V251.54H298.34L298.658 251.245ZM297.988 250.405C298.101 250.405 298.169 250.485 298.169 250.553C298.169 250.621 298.101 250.655 297.988 250.689C297.874 250.723 297.817 250.689 297.817 250.553C297.817 250.416 297.874 250.36 297.999 250.405H297.988ZM296.932 247.703C296.932 247.374 296.932 247.022 297.034 246.636C297.136 246.249 297.114 245.92 297.159 245.625C297.204 245.33 297.25 245.171 297.295 245.171C297.341 245.171 297.386 245.318 297.409 245.625C297.431 245.932 297.409 246.261 297.409 246.658V248.259C297.409 248.464 297.318 248.554 297.136 248.554C296.955 248.554 296.852 248.464 296.852 248.259C296.852 248.055 296.909 248.032 296.943 247.703H296.932ZM296.569 251.427C296.76 251.431 296.95 251.454 297.136 251.495L297.556 251.563C297.646 251.562 297.732 251.534 297.806 251.484C297.886 251.427 297.931 251.484 297.931 251.484C297.931 251.484 297.84 251.745 297.647 251.745C297.564 251.753 297.48 251.753 297.397 251.745C297.262 251.76 297.124 251.76 296.989 251.745L296.591 251.665C296.478 251.665 296.421 251.62 296.421 251.529C296.421 251.529 296.478 251.427 296.58 251.427H296.569ZM301.28 253.232C301.19 253.232 301.201 253.119 301.28 253.016C301.36 252.914 301.496 252.892 301.553 253.016C301.61 253.141 301.61 253.187 301.553 253.244C301.496 253.3 301.428 253.266 301.28 253.232ZM304.834 228.492H298.238L295.115 230.57L294.604 230.922C294.63 230.981 294.661 231.037 294.695 231.092C294.77 231.239 294.805 231.404 294.797 231.569C294.794 231.713 294.763 231.856 294.706 231.989C294.66 232.074 294.63 232.166 294.616 232.261C294.616 232.261 294.616 232.261 294.491 232.171C294.435 232.101 294.36 232.049 294.275 232.023C294.241 231.954 294.223 231.878 294.223 231.802C294.223 231.725 294.241 231.649 294.275 231.58C294.275 231.41 294.366 231.262 294.389 231.137V231.069L293.253 231.819V236.36H299.634L299.384 235.441H299.634V233.567H302.859V237.257L308.536 235.599L309.41 235.338H309.614H309.728V231.932L304.834 228.492Z" fill="#190232"/>
<path d="M329.109 231.058L327.338 231.546H327.19H326.963H326.725H326.554C326.685 231.275 326.918 231.067 327.201 230.967C327.568 230.813 327.948 230.695 328.337 230.615H328.462L325.396 228.56H323.443V231.569H324.272V231.875H323.443V244.705H324.579V246.726C324.598 246.862 324.567 247 324.491 247.115C324.416 247.23 324.302 247.314 324.17 247.351C323.929 247.422 323.682 247.468 323.432 247.487V253.857H324.193L328.462 253.516H328.871L330.335 253.834V253.3C330.324 253.368 330.287 253.428 330.232 253.468C330.176 253.509 330.108 253.526 330.04 253.516C329.959 253.516 329.881 253.484 329.823 253.426C329.766 253.369 329.733 253.291 329.733 253.209C329.733 253.128 329.766 253.05 329.823 252.993C329.881 252.935 329.959 252.903 330.04 252.903C330.108 252.893 330.176 252.91 330.232 252.951C330.287 252.991 330.324 253.051 330.335 253.119V251.665H330.278C330.051 251.665 329.938 251.563 329.938 251.359C329.938 251.143 330.051 251.052 330.278 251.052H330.335V231.853L329.109 231.058ZM324.159 253.221C324.159 253.312 324.068 253.357 323.954 253.357C323.841 253.357 323.841 253.357 323.807 253.198C323.773 253.039 323.807 253.051 323.954 253.051C324.102 253.051 324.227 253.107 324.159 253.221ZM324.987 231.546C325.124 231.592 325.192 231.637 325.192 231.682C325.192 231.728 325.124 231.785 324.987 231.853C324.851 231.898 324.783 231.841 324.783 231.682C324.783 231.523 324.851 231.478 324.987 231.546ZM325.737 253.221C325.737 253.312 325.68 253.357 325.567 253.357C325.52 253.356 325.475 253.34 325.438 253.312C325.401 253.283 325.374 253.243 325.362 253.198C325.362 253.107 325.362 253.051 325.567 253.051C325.771 253.051 325.782 253.107 325.737 253.221ZM327.099 246.976C327.099 246.976 326.986 246.908 326.895 246.772C326.794 246.619 326.703 246.459 326.622 246.295L326.35 245.727C326.276 245.579 326.219 245.423 326.18 245.262L326.895 242.991C326.937 243.147 326.96 243.307 326.963 243.468V245.012C326.963 245.205 326.963 245.307 326.963 245.307C326.963 245.307 327.099 245.387 327.224 245.534C327.349 245.682 327.474 245.852 327.61 246.045L327.985 246.59C328.054 246.681 328.111 246.78 328.155 246.885C328.155 246.885 327.974 246.953 327.61 246.953H327.258L327.099 246.976ZM329.245 252.914C329.245 253.005 329.154 253.051 329.052 253.051C329.005 253.053 328.958 253.04 328.919 253.013C328.88 252.986 328.851 252.948 328.836 252.903C328.836 252.789 328.836 252.744 329.052 252.744C329.268 252.744 329.291 252.801 329.245 252.914ZM329.086 251.347C328.871 251.347 328.768 251.245 328.768 251.041C328.722 250.879 328.636 250.731 328.519 250.609L327.985 249.905L327.508 249.247C327.372 249.054 327.326 248.952 327.372 248.952C327.524 249.026 327.663 249.125 327.781 249.247C328.027 249.454 328.262 249.674 328.484 249.905L329.132 250.609C329.325 250.825 329.415 250.973 329.415 251.041C329.415 251.109 329.313 251.347 329.086 251.347ZM313.27 234.51V248.066C313.316 247.975 313.418 247.93 313.577 247.93C313.614 247.925 313.653 247.928 313.689 247.939C313.725 247.951 313.758 247.971 313.785 247.997C313.812 248.023 313.833 248.055 313.847 248.091C313.86 248.127 313.864 248.165 313.861 248.202C313.861 248.429 313.758 248.543 313.577 248.543C313.514 248.551 313.451 248.539 313.395 248.508C313.34 248.478 313.296 248.43 313.27 248.373V253.868H319.14C319.14 253.868 319.22 253.868 319.299 253.732C319.365 253.657 319.437 253.589 319.515 253.527C319.825 253.119 320.038 252.645 320.139 252.142V251.961V243.036C320.056 242.653 319.953 242.274 319.833 241.901L317.562 243.842H315.961V243.366C316.537 243.361 317.104 243.225 317.619 242.968C318.139 242.719 318.611 242.381 319.015 241.969C319.406 241.57 319.728 241.11 319.969 240.607C320.043 240.452 320.108 240.292 320.162 240.13V234.51H313.27ZM314.508 242.911C313.906 242.911 313.611 242.65 313.611 242.128C314.201 242.128 314.508 242.389 314.508 242.911ZM313.679 244.138H314.44V244.546C314.287 244.562 314.132 244.531 313.997 244.458C313.861 244.386 313.751 244.274 313.679 244.138ZM314.406 248.884C314.406 248.657 314.508 248.543 314.712 248.543C314.758 248.538 314.805 248.543 314.849 248.558C314.893 248.573 314.932 248.598 314.965 248.631C314.998 248.663 315.023 248.703 315.038 248.747C315.053 248.791 315.058 248.838 315.053 248.884C315.053 249.088 314.939 249.19 314.712 249.19C314.671 249.196 314.628 249.192 314.588 249.178C314.549 249.165 314.513 249.142 314.483 249.113C314.453 249.083 314.431 249.047 314.417 249.007C314.404 248.968 314.4 248.925 314.406 248.884ZM316.381 251.926C316.177 251.926 316.075 251.813 316.075 251.586C316.075 251.505 316.107 251.427 316.164 251.369C316.222 251.312 316.3 251.279 316.381 251.279C316.462 251.279 316.54 251.312 316.598 251.369C316.655 251.427 316.688 251.505 316.688 251.586C316.688 251.813 316.586 251.926 316.381 251.926ZM318.323 251.926C318.538 251.926 318.629 252.04 318.629 252.267C318.637 252.309 318.635 252.353 318.623 252.394C318.61 252.435 318.588 252.472 318.558 252.502C318.527 252.532 318.49 252.555 318.449 252.567C318.408 252.58 318.365 252.582 318.323 252.574C318.096 252.574 317.982 252.471 317.982 252.267C317.977 252.222 317.982 252.177 317.996 252.134C318.011 252.091 318.035 252.052 318.066 252.019C318.098 251.986 318.136 251.961 318.178 251.945C318.221 251.929 318.266 251.923 318.311 251.926H318.323ZM317.187 249.656C317.414 249.656 317.528 249.758 317.528 249.974C317.528 250.189 317.414 250.28 317.187 250.28C317.146 250.286 317.103 250.282 317.064 250.268C317.024 250.255 316.988 250.232 316.958 250.203C316.928 250.173 316.906 250.137 316.893 250.097C316.879 250.058 316.875 250.015 316.881 249.974C316.858 249.769 316.96 249.667 317.176 249.667L317.187 249.656ZM317.006 250.791L317.619 251.064C317.789 251.132 317.891 251.064 317.937 251.064V251.438C317.583 251.433 317.23 251.403 316.881 251.347C316.493 251.294 316.113 251.198 315.745 251.064C315.787 251.093 315.822 251.132 315.846 251.177C315.869 251.223 315.882 251.273 315.882 251.325C315.882 251.54 315.791 251.643 315.609 251.643C315.427 251.643 315.303 251.54 315.303 251.325C315.299 251.284 315.304 251.243 315.318 251.205C315.333 251.166 315.355 251.132 315.385 251.103C315.414 251.075 315.45 251.054 315.489 251.041C315.527 251.028 315.569 251.024 315.609 251.03H315.677C315.316 250.921 315.011 250.677 314.826 250.348H315.2H315.609C315.824 250.357 316.034 250.415 316.222 250.519L317.006 250.791ZM315.995 244.773C315.995 244.887 315.882 244.955 315.791 244.955C315.7 244.955 315.666 244.955 315.632 244.808C315.598 244.66 315.632 244.671 315.791 244.671C315.95 244.671 316.041 244.683 315.972 244.751L315.995 244.773ZM317.937 242.219C317.778 242.219 317.698 242.105 317.698 241.878C317.698 241.651 317.778 241.538 317.937 241.538C318.141 241.538 318.243 241.651 318.243 241.878C318.243 242.105 318.133 242.211 317.914 242.196L317.937 242.219ZM319.538 240.924C319.345 240.924 319.242 240.811 319.242 240.584C319.242 240.357 319.345 240.277 319.538 240.277C319.731 240.277 319.81 240.368 319.81 240.584C319.81 240.8 319.708 240.902 319.515 240.902L319.538 240.924ZM313.293 228.56V233.806H322.694V228.537L313.293 228.56ZM319.958 231.875H316.813C317.174 231.718 317.557 231.615 317.948 231.569C318.277 231.569 318.675 231.569 319.163 231.569H319.742H320.321L319.958 231.875Z" fill="#190232"/>
<path d="M345.561 228.492H338.748L333.81 231.819V233.999H343.949V237.405H350.454V231.728L345.561 228.492ZM339.589 229.877C339.755 229.706 339.942 229.558 340.145 229.434C340.365 229.3 340.592 229.179 340.826 229.071C341.018 228.984 341.216 228.908 341.417 228.844V229.184L339.43 230.524C339.437 230.494 339.437 230.463 339.43 230.433C339.422 230.404 339.422 230.372 339.43 230.343C339.428 230.17 339.493 230.003 339.611 229.877H339.589ZM342.779 253.039H339.952L340.372 253.391C340.281 253.573 340.168 253.675 340.043 253.686H339.577C339.116 253.696 338.656 253.631 338.215 253.493L338.748 253.857H342.529L343.097 253.38L342.779 253.039ZM343.12 248.361H340.713V234.737H333.81V245.194C333.837 245.261 333.871 245.326 333.912 245.387C334.016 245.533 334.134 245.67 334.264 245.795L334.661 246.147L334.956 246.374C334.956 246.374 334.956 246.477 334.82 246.556C334.769 246.621 334.697 246.665 334.616 246.681C334.458 246.669 334.303 246.626 334.161 246.556C334.038 246.518 333.92 246.465 333.81 246.397V250.53L335.024 251.347L335.24 251.495L335.717 251.813L336.523 252.347L337.341 252.892C337.659 252.801 337.999 252.721 338.362 252.642L339.589 252.437C339.848 252.393 340.109 252.362 340.372 252.347H340.588L340.951 252.449L341.314 252.551L341.564 252.608H341.95C341.829 252.476 341.687 252.364 341.53 252.278C341.337 252.176 341.144 252.074 340.951 251.995L340.372 251.768L339.952 251.631C339.957 251.601 339.957 251.571 339.952 251.54C339.949 251.503 339.949 251.465 339.952 251.427V251.359C340.007 251.286 340.072 251.221 340.145 251.166C340.216 251.109 340.292 251.06 340.372 251.018H340.44H340.542C340.683 251.044 340.82 251.086 340.951 251.143L341.666 251.427C341.911 251.523 342.15 251.633 342.382 251.756C342.532 251.823 342.667 251.919 342.779 252.04C342.897 251.928 342.989 251.792 343.05 251.641C343.111 251.49 343.138 251.328 343.131 251.166V250.189C343.154 249.644 343.154 249.043 343.142 248.361H343.12ZM334.196 248.361C333.968 248.361 333.844 248.248 333.844 248.043C333.838 247.996 333.844 247.948 333.859 247.903C333.875 247.857 333.901 247.816 333.935 247.782C333.968 247.749 334.01 247.723 334.055 247.707C334.1 247.691 334.148 247.686 334.196 247.691C334.4 247.691 334.513 247.816 334.513 248.043C334.519 248.085 334.514 248.128 334.501 248.168C334.488 248.208 334.466 248.245 334.436 248.276C334.407 248.306 334.371 248.33 334.331 248.344C334.292 248.359 334.249 248.365 334.207 248.361H334.196ZM334.888 244.035C334.888 244.035 334.797 243.82 334.741 243.4C334.684 242.98 334.616 242.514 334.559 241.992C334.502 241.469 334.445 240.981 334.4 240.538C334.355 240.096 334.332 239.834 334.332 239.766C334.332 239.698 334.332 239.517 334.332 239.369C334.332 239.221 334.4 239.142 334.525 239.142C334.65 239.142 334.865 239.244 334.865 239.448C334.865 239.653 334.865 239.676 334.865 239.982C334.865 240.289 334.865 240.629 334.865 241.027C334.865 241.424 334.865 241.833 334.865 242.253C334.865 242.673 334.865 243.036 334.865 243.388C334.865 243.74 334.956 244.035 334.911 244.035H334.888ZM336.591 248.282C336.588 248.308 336.588 248.335 336.591 248.361C336.284 248.252 335.988 248.116 335.706 247.953C335.575 247.886 335.467 247.783 335.394 247.656C335.321 247.529 335.288 247.383 335.297 247.237C335.585 247.225 335.867 247.318 336.092 247.498C336.273 247.666 336.44 247.848 336.591 248.043V248.112C336.595 248.145 336.595 248.18 336.591 248.214C336.601 248.227 336.609 248.243 336.614 248.259L336.591 248.282ZM337.375 251.359C337.327 251.367 337.277 251.363 337.231 251.348C337.185 251.333 337.143 251.307 337.108 251.273C337.074 251.239 337.048 251.197 337.033 251.15C337.019 251.104 337.015 251.055 337.023 251.007C337.023 250.78 337.136 250.666 337.375 250.666C337.613 250.666 337.681 250.78 337.681 251.007C337.681 251.234 337.613 251.359 337.397 251.359H337.375ZM338.51 251.12C338.426 251.241 338.301 251.326 338.158 251.359C338.237 251.257 338.29 251.138 338.311 251.011C338.333 250.884 338.323 250.754 338.283 250.632C338.2 250.432 338.067 250.256 337.897 250.121C337.722 249.967 337.555 249.804 337.397 249.633C337.232 249.449 337.143 249.21 337.148 248.963C337.087 249.003 337.016 249.023 336.943 249.02C336.727 249.02 336.625 248.906 336.625 248.668C336.625 248.429 336.727 248.361 336.943 248.361C336.985 248.356 337.028 248.36 337.068 248.374C337.108 248.387 337.145 248.409 337.175 248.439C337.206 248.468 337.229 248.504 337.244 248.544C337.259 248.583 337.265 248.626 337.261 248.668C337.267 248.72 337.261 248.773 337.243 248.822C337.225 248.871 337.197 248.915 337.159 248.952C337.51 248.906 337.864 249 338.147 249.213C338.32 249.474 338.401 249.786 338.374 250.098C338.371 250.23 338.395 250.361 338.442 250.485C338.486 250.595 338.521 250.709 338.544 250.825C338.578 250.921 338.578 251.025 338.544 251.12H338.51ZM342.348 251.393C342.302 251.398 342.255 251.393 342.211 251.378C342.167 251.363 342.128 251.338 342.095 251.305C342.062 251.272 342.037 251.233 342.022 251.189C342.007 251.145 342.002 251.098 342.007 251.052C342.007 250.814 342.121 250.7 342.348 250.7C342.575 250.7 342.666 250.814 342.666 251.052C342.666 251.291 342.597 251.393 342.382 251.393H342.348ZM343.971 243.718V248.861L344.062 249.133C344.113 249.322 344.136 249.517 344.13 249.712V253.823L344.505 253.891H345.413C345.4 253.835 345.4 253.776 345.413 253.72C345.41 253.678 345.415 253.636 345.43 253.596C345.445 253.556 345.469 253.521 345.499 253.491C345.529 253.462 345.566 253.44 345.606 253.426C345.647 253.413 345.689 253.409 345.731 253.414C345.799 253.403 345.867 253.419 345.924 253.456C345.981 253.494 346.021 253.552 346.038 253.618L348.831 251.665H347.196C347.186 251.559 347.205 251.453 347.251 251.357C347.297 251.261 347.368 251.179 347.457 251.12C347.655 251.012 347.878 250.957 348.104 250.961C348.316 250.957 348.524 251.012 348.706 251.12C348.798 251.175 348.872 251.256 348.919 251.353C348.965 251.45 348.982 251.559 348.967 251.665L350.591 250.587V243.718H343.971ZM346.026 252.903C345.947 253.028 345.708 253.085 345.311 253.062C345.149 252.872 345.046 252.639 345.016 252.392C344.959 252.176 344.921 251.956 344.902 251.733C344.984 251.59 345.097 251.466 345.232 251.37C345.36 251.235 345.52 251.134 345.697 251.075C345.614 251.202 345.582 251.356 345.606 251.506C345.645 251.613 345.707 251.71 345.788 251.79L346.026 252.051C346.072 252.102 346.106 252.161 346.127 252.226C346.149 252.29 346.157 252.358 346.151 252.426C346.157 252.587 346.114 252.745 346.026 252.88V252.903ZM345.107 250.53C345.107 250.405 345.175 250.36 345.311 250.382C345.447 250.405 345.493 250.473 345.493 250.53C345.493 250.587 345.425 250.678 345.3 250.7C345.175 250.723 345.107 250.666 345.107 250.53Z" fill="#190232"/>
<path d="M369.2 230.956L366.327 231.739H366.168H365.953H365.714H365.544C365.674 231.468 365.907 231.26 366.191 231.16C366.558 231.01 366.938 230.896 367.326 230.82C367.735 230.717 368.155 230.638 368.598 230.558L365.589 228.537H363.954V231.762C364.091 231.762 364.17 231.853 364.17 231.898C364.17 231.944 364.091 232.023 363.954 232.068V238.722H353.838V241.674H370.494V231.807L369.2 230.956ZM360.605 240.754C360.599 240.713 360.603 240.67 360.617 240.631C360.63 240.591 360.653 240.555 360.682 240.525C360.712 240.495 360.748 240.473 360.788 240.46C360.828 240.446 360.87 240.442 360.911 240.448C361.093 240.448 361.184 240.55 361.184 240.754C361.184 240.959 361.093 241.072 360.911 241.095C360.707 241.095 360.605 240.981 360.605 240.754ZM358.709 228.503L353.804 231.807V238.041H360.673V233.556H363.477V228.503H358.709ZM356.915 231.739C357.255 231.739 357.653 231.739 358.13 231.739H358.709H359.299L358.89 232.046H355.779C356.141 231.888 356.523 231.784 356.915 231.739ZM363.194 232.046H361.615V231.739H363.194V232.046Z" fill="#190232"/>
<path d="M365.998 244.944V245.262C365.998 245.466 365.998 245.568 365.998 245.568C365.998 245.568 366.134 245.636 366.259 245.784C366.384 245.932 366.509 246.113 366.645 246.295L367.02 246.851C367.067 246.938 367.105 247.029 367.133 247.124C367.133 247.124 366.952 247.192 366.588 247.192H366.225H366.043C366.043 247.192 365.93 247.124 365.839 246.988C365.738 246.834 365.647 246.675 365.567 246.511C365.476 246.329 365.385 246.147 365.294 245.943C365.219 245.799 365.161 245.647 365.124 245.489L365.294 244.967H363.875V248.827H360.628V242.582L358.913 244.035H357.312V243.559C357.887 243.559 358.454 243.427 358.97 243.173C359.378 242.98 359.759 242.736 360.105 242.446H355.45C355.59 242.498 355.709 242.596 355.787 242.724C355.865 242.851 355.899 243.001 355.882 243.15C355.314 243.15 355.019 242.923 354.996 242.446H353.792V250.53L358.697 253.845H365.51L368.859 251.575C368.854 251.541 368.854 251.506 368.859 251.472C368.859 251.268 368.973 251.166 369.2 251.166C369.27 251.146 369.345 251.146 369.416 251.166L370.551 250.439V244.944H365.998ZM358.595 249.871C358.822 249.871 358.936 249.974 358.936 250.178C358.936 250.382 358.822 250.485 358.595 250.485C358.514 250.485 358.436 250.452 358.378 250.395C358.321 250.337 358.289 250.259 358.289 250.178C358.289 250.097 358.321 250.019 358.378 249.961C358.436 249.904 358.514 249.871 358.595 249.871ZM357.153 244.853C357.358 244.853 357.426 244.887 357.358 244.955C357.289 245.023 357.221 245.08 357.153 245.125C357.117 245.123 357.082 245.108 357.055 245.084C357.028 245.059 357.011 245.025 357.006 244.989C356.915 244.853 357.017 244.853 357.153 244.853ZM355.779 244.342V244.751C355.628 244.767 355.475 244.737 355.341 244.664C355.207 244.59 355.099 244.478 355.03 244.342H355.779ZM354.917 248.747C354.869 248.753 354.822 248.748 354.777 248.732C354.732 248.716 354.691 248.69 354.658 248.656C354.625 248.622 354.601 248.581 354.586 248.536C354.572 248.49 354.569 248.442 354.576 248.395C354.576 248.225 354.689 248.123 354.917 248.123C354.953 248.119 354.99 248.124 355.025 248.136C355.059 248.149 355.091 248.169 355.117 248.195C355.143 248.221 355.163 248.252 355.175 248.287C355.188 248.322 355.193 248.359 355.189 248.395C355.234 248.622 355.144 248.747 354.962 248.747H354.917ZM355.745 249.088C355.745 248.861 355.848 248.747 356.052 248.747C356.098 248.742 356.145 248.747 356.188 248.762C356.232 248.777 356.272 248.802 356.305 248.835C356.338 248.868 356.363 248.908 356.378 248.951C356.393 248.995 356.398 249.042 356.393 249.088C356.393 249.292 356.279 249.395 356.052 249.395C356.013 249.395 355.975 249.387 355.939 249.371C355.904 249.355 355.872 249.332 355.846 249.303C355.82 249.274 355.801 249.24 355.79 249.203C355.778 249.166 355.775 249.127 355.779 249.088H355.745ZM357.721 252.12C357.517 252.12 357.414 252.006 357.414 251.779C357.414 251.698 357.447 251.62 357.504 251.562C357.562 251.505 357.64 251.472 357.721 251.472C357.802 251.472 357.88 251.505 357.938 251.562C357.995 251.62 358.028 251.698 358.028 251.779C358.043 252.006 357.956 252.12 357.766 252.12H357.721ZM359.254 251.575C358.9 251.574 358.547 251.547 358.198 251.495C357.809 251.443 357.427 251.344 357.062 251.2C357.105 251.231 357.14 251.272 357.164 251.319C357.188 251.367 357.2 251.419 357.199 251.472C357.199 251.677 357.108 251.779 356.926 251.779C356.845 251.779 356.767 251.747 356.709 251.689C356.652 251.632 356.62 251.554 356.62 251.472C356.62 251.391 356.652 251.313 356.709 251.256C356.767 251.198 356.845 251.166 356.926 251.166H356.994C356.814 251.114 356.647 251.027 356.5 250.91C356.354 250.793 356.233 250.649 356.143 250.485H356.517H356.926C357.14 250.499 357.349 250.557 357.539 250.655L358.277 250.995L358.89 251.268C359.061 251.336 359.163 251.325 359.208 251.268L359.254 251.575ZM359.674 252.778C359.447 252.778 359.322 252.664 359.322 252.471C359.316 252.424 359.322 252.376 359.338 252.331C359.353 252.285 359.379 252.244 359.413 252.211C359.447 252.177 359.488 252.151 359.533 252.135C359.578 252.119 359.626 252.114 359.674 252.12C359.867 252.12 359.98 252.233 359.98 252.471C359.987 252.511 359.985 252.55 359.975 252.589C359.965 252.627 359.947 252.663 359.923 252.694C359.898 252.725 359.867 252.75 359.832 252.769C359.797 252.787 359.759 252.798 359.719 252.801L359.674 252.778ZM361.57 253.732C361.343 253.732 361.229 253.63 361.229 253.425C361.225 253.354 361.247 253.284 361.291 253.227C361.335 253.171 361.398 253.132 361.468 253.119H361.57C361.612 253.11 361.655 253.113 361.696 253.125C361.737 253.138 361.775 253.16 361.805 253.19C361.835 253.221 361.858 253.258 361.87 253.299C361.883 253.34 361.885 253.383 361.876 253.425C361.881 253.463 361.878 253.501 361.867 253.537C361.856 253.574 361.838 253.607 361.814 253.636C361.789 253.665 361.759 253.688 361.725 253.705C361.69 253.721 361.653 253.73 361.615 253.732H361.57ZM368.019 251.54C367.815 251.54 367.724 251.438 367.724 251.234C367.724 251.03 367.633 251.03 367.463 250.814L366.929 250.11L366.452 249.44C366.316 249.247 366.27 249.156 366.316 249.156C366.469 249.223 366.608 249.32 366.725 249.44C366.971 249.651 367.206 249.875 367.429 250.11C367.667 250.36 367.883 250.587 368.076 250.814C368.269 251.041 368.371 251.166 368.371 251.234C368.371 251.302 368.269 251.54 368.064 251.54H368.019Z" fill="#190232"/>
<path d="M265.084 213.879L265.856 213.607C265.997 213.554 266.141 213.513 266.288 213.482H267.525H267.786L268.286 213.402L268.672 213.334V208.441L267.219 203.547L265.777 198.79L268.127 196.951V196.337H258.101V202.105H259.793L260.27 204.478L260.406 205.159L260.929 207.737V211.926L261.133 211.87L261.485 211.767C261.522 211.773 261.561 211.773 261.598 211.767L261.678 211.688C261.661 211.723 261.633 211.751 261.598 211.767L261.292 212.029C261.164 212.131 261.043 212.241 260.929 212.358V214.765H268.706V214.288H268.547C268.07 214.362 267.588 214.396 267.105 214.39L266.628 214.447C266.375 214.464 266.121 214.464 265.867 214.447C265.643 214.439 265.419 214.416 265.198 214.379L264.414 214.254H264.005C264.12 214.188 264.242 214.134 264.369 214.095C264.562 214.05 264.812 213.97 265.084 213.879ZM268.581 212.46C268.587 212.513 268.582 212.566 268.566 212.617C268.551 212.668 268.525 212.715 268.49 212.755C268.457 212.79 268.416 212.818 268.371 212.836C268.326 212.853 268.277 212.861 268.229 212.857C268.013 212.857 267.911 212.733 267.911 212.471C267.911 212.21 268.025 212.085 268.229 212.085C268.433 212.085 268.581 212.21 268.581 212.46ZM267.877 210.916C268.07 210.916 268.161 211.041 268.161 211.302C268.161 211.563 268.07 211.722 267.877 211.722C267.684 211.722 267.525 211.586 267.525 211.302C267.525 211.018 267.639 210.916 267.877 210.916ZM267.071 212.051C266.91 212.298 266.663 212.476 266.378 212.551C266.072 212.642 265.731 212.721 265.402 212.801C265.073 212.88 265.027 212.892 264.834 212.937L265.538 212.494C266.015 212.251 266.537 212.108 267.071 212.074V212.051ZM262.881 211.665C262.929 211.66 262.977 211.665 263.022 211.681C263.067 211.697 263.108 211.723 263.142 211.756C263.176 211.79 263.202 211.831 263.218 211.876C263.233 211.922 263.239 211.97 263.233 212.017C263.233 212.278 263.12 212.403 262.881 212.403C262.643 212.403 262.529 212.278 262.529 212.017C262.528 211.972 262.536 211.926 262.553 211.884C262.57 211.841 262.596 211.803 262.63 211.772C262.663 211.741 262.703 211.717 262.746 211.702C262.79 211.688 262.836 211.683 262.881 211.688V211.665ZM261.86 212.619C261.769 212.619 261.701 212.551 261.667 212.403C261.632 212.256 261.667 212.199 261.86 212.199C262.053 212.199 262.098 212.267 262.075 212.403C262.053 212.54 261.95 212.642 261.86 212.642V212.619ZM262.666 212.801H262.461L262.881 212.562L263.483 212.233L264.074 211.892L264.505 211.665H264.573H264.709H264.778H264.846L264.414 211.961C264.234 212.098 264.044 212.224 263.846 212.335C263.648 212.452 263.443 212.558 263.233 212.653C263.063 212.751 262.873 212.809 262.677 212.823L262.666 212.801Z" fill="#190232"/>
<path d="M249.847 191.126V214.765H257.363V191.126H249.847ZM254.82 210.337C254.82 210.212 254.911 210.155 254.956 210.178C255.002 210.201 255.172 210.439 255.172 210.746C255.172 211.052 255.104 211.234 254.956 211.302C254.809 211.37 254.865 211.302 254.82 211.177C254.773 211.053 254.742 210.923 254.729 210.791C254.728 210.635 254.759 210.48 254.82 210.337ZM252.992 196.281C253.174 196.281 253.265 196.394 253.265 196.621C253.265 196.882 253.174 197.007 252.992 197.007C252.81 197.007 252.64 196.882 252.64 196.621C252.64 196.36 252.754 196.281 252.992 196.281ZM250.574 202.957L251.323 201.549C251.618 201.015 251.948 200.414 252.311 199.835C252.674 199.255 253.015 198.699 253.333 198.143C253.651 197.586 253.923 197.189 254.162 196.837C254.28 196.636 254.421 196.45 254.582 196.281V196.621C254.579 197.28 254.436 197.93 254.162 198.529C253.872 199.173 253.53 199.792 253.14 200.38C252.742 200.97 252.322 201.515 251.891 202.094C251.459 202.673 251.073 203.173 250.755 203.661H250.301C250.367 203.417 250.458 203.181 250.574 202.957ZM253.514 201.765C253.355 201.765 253.265 201.64 253.265 201.379C253.265 201.118 253.355 200.959 253.514 200.959C253.673 200.959 253.866 201.095 253.866 201.379C253.866 201.663 253.753 201.765 253.514 201.765ZM253.934 212.278C254.011 212.216 254.083 212.147 254.15 212.074L253.73 212.858C253.734 212.827 253.734 212.797 253.73 212.767C253.725 212.737 253.725 212.706 253.73 212.676C253.726 212.634 253.726 212.592 253.73 212.551V212.46L253.934 212.278ZM254.15 213.244C254.143 213.277 254.143 213.312 254.15 213.346C254.157 213.379 254.157 213.414 254.15 213.448C254.156 213.486 254.156 213.524 254.15 213.561V213.63C254.114 213.718 254.055 213.797 253.98 213.857C253.905 213.922 253.821 213.976 253.73 214.016H253.662H253.514H253.446H253.378L254.15 213.244ZM252.572 213.244L252.992 213.63H252.141L252.572 213.244ZM252.458 202.117C252.453 202.069 252.458 202.021 252.474 201.976C252.49 201.931 252.516 201.89 252.55 201.856C252.583 201.822 252.624 201.796 252.67 201.78C252.715 201.765 252.763 201.759 252.81 201.765C253.026 201.765 253.128 201.878 253.128 202.117C253.128 202.355 253.026 202.503 252.81 202.503C252.595 202.503 252.458 202.378 252.458 202.117ZM252.674 212.074C252.669 212.027 252.674 211.978 252.69 211.933C252.706 211.888 252.731 211.847 252.765 211.813C252.799 211.779 252.84 211.754 252.885 211.738C252.93 211.722 252.979 211.717 253.026 211.722C253.208 211.722 253.299 211.847 253.299 212.074C253.299 212.301 253.208 212.46 253.026 212.46C252.844 212.46 252.64 212.335 252.64 212.074H252.674Z" fill="#190232"/>
<path d="M262.075 212.426C262.075 212.574 261.95 212.642 261.86 212.642C261.769 212.642 261.701 212.574 261.667 212.426C261.632 212.278 261.667 212.222 261.86 212.222C262.053 212.222 262.098 212.29 262.075 212.426Z" fill="#190232"/>
<path d="M267.094 187.107L264.255 185.211V186.232L263.869 186.618C263.611 186.079 263.431 185.506 263.336 184.915C263.336 184.791 263.336 184.677 263.336 184.563L262.677 184.2H249.847V190.354H260.849V195.565H268.093V187.777L267.094 187.107ZM267.423 189.798C267.423 190.059 267.309 190.184 267.105 190.184C267.026 190.184 266.949 190.156 266.889 190.104C266.817 190.019 266.78 189.909 266.787 189.798C266.787 189.559 266.889 189.446 267.105 189.446C267.172 189.439 267.24 189.457 267.294 189.497C267.349 189.536 267.387 189.595 267.4 189.661C267.414 189.705 267.422 189.751 267.423 189.798Z" fill="#190232"/>
<path d="M261.644 211.688C261.627 211.723 261.599 211.751 261.564 211.768L261.644 211.688Z" fill="#190232"/>
<path d="M288.519 209.928C288.519 210.189 288.405 210.326 288.189 210.326C287.974 210.326 287.905 210.189 287.905 209.928C287.905 209.667 288.008 209.542 288.189 209.542C288.371 209.542 288.519 209.656 288.519 209.928Z" fill="#190232"/>
<path d="M288.405 212.653C288.405 212.892 288.337 213.016 288.189 213.05C288.042 213.085 288.11 213.05 288.087 212.971C288.075 212.865 288.075 212.759 288.087 212.653C288.087 212.358 288.087 212.233 288.223 212.256C288.289 212.297 288.341 212.357 288.374 212.427C288.406 212.498 288.417 212.576 288.405 212.653Z" fill="#190232"/>
<path d="M289.325 213.527V213.686L289.018 213.834C289.068 213.75 289.133 213.677 289.211 213.618L289.325 213.527Z" fill="#190232"/>
</g>
</g>
<defs>
<filter id="filter0_d_307_871" x="0" y="0" width="514" height="454" filterUnits="userSpaceOnUse" color-interpolation-filters="sRGB">
<feFlood flood-opacity="0" result="BackgroundImageFix"/>
<feColorMatrix in="SourceAlpha" type="matrix" values="0 0 0 0 0 0 0 0 0 0 0 0 0 0 0 0 0 0 127 0" result="hardAlpha"/>
<feMorphology radius="1" operator="erode" in="SourceAlpha" result="effect1_dropShadow_307_871"/>
<feOffset dy="8"/>
<feGaussianBlur stdDeviation="24"/>
<feComposite in2="hardAlpha" operator="out"/>
<feColorMatrix type="matrix" values="0 0 0 0 0 0 0 0 0 0 0 0 0 0 0 0 0 0 0.05 0"/>
<feBlend mode="normal" in2="BackgroundImageFix" result="effect1_dropShadow_307_871"/>
<feBlend mode="normal" in="SourceGraphic" in2="effect1_dropShadow_307_871" result="shape"/>
</filter>
<clipPath id="clip0_307_871">
<rect width="227.079" height="80" fill="white" transform="translate(143.46 179)"/>
</clipPath>
</defs>
</svg>
