<svg width="32" height="33" viewBox="0 0 32 33" fill="none" xmlns="http://www.w3.org/2000/svg">
<g clip-path="url(#clip0_771_2154)">
<rect y="0.396484" width="32" height="32" rx="8" fill="#6B7280"/>
<path d="M22.86 16.7364C22.5648 17.3127 22.1405 17.8129 21.6201 18.198C21.0997 18.5831 20.4973 18.8427 19.86 18.9564C19.42 19.0664 18.97 19.1264 18.5 19.2264C18.7679 19.5335 18.9686 19.8931 19.0891 20.2824C19.2097 20.6716 19.2474 21.0818 19.2 21.4864C19.2 22.3364 19.2 23.1864 19.2 24.0364C19.2 24.4564 19.38 24.6864 19.69 24.6964H13.29C13.3512 24.7033 13.4132 24.6979 13.4723 24.6803C13.5314 24.6628 13.5863 24.6336 13.6339 24.5944C13.6815 24.5553 13.7207 24.5069 13.7492 24.4523C13.7777 24.3977 13.795 24.3379 13.8 24.2764C13.8 23.5764 13.8 22.8864 13.8 22.2064C13.3183 22.2557 12.8341 22.2757 12.35 22.2664C11.8588 22.2767 11.3763 22.1353 10.9683 21.8615C10.5603 21.5878 10.2467 21.1949 10.07 20.7364C9.84739 20.1224 9.42472 19.6011 8.86997 19.2564C8.76169 19.1915 8.66669 19.1067 8.58997 19.0064C8.47997 18.8764 8.49997 18.7464 8.66997 18.7164C8.84493 18.6817 9.02501 18.6817 9.19997 18.7164C9.51264 18.7823 9.80749 18.9147 10.0646 19.1044C10.3216 19.2942 10.5349 19.537 10.69 19.8164C10.9662 20.3358 11.4366 20.725 11.9985 20.8992C12.5604 21.0734 13.1684 21.0185 13.69 20.7464C13.7272 20.7347 13.7616 20.7153 13.7908 20.6894C13.8201 20.6636 13.8437 20.6319 13.86 20.5964C13.9432 20.0995 14.169 19.6374 14.51 19.2664C14.1 19.1864 13.72 19.1364 13.35 19.0464C12.2657 18.8425 11.2902 18.2572 10.6 17.3964C10.0416 16.6832 9.69509 15.8273 9.59997 14.9264C9.46188 14.2545 9.4755 13.5601 9.63985 12.8941C9.8042 12.228 10.1151 11.6071 10.55 11.0764C10.575 11.0404 10.5923 10.9996 10.6009 10.9566C10.6095 10.9136 10.6092 10.8693 10.6 10.8264C10.3626 10.0577 10.3626 9.23521 10.6 8.46645C10.72 8.05645 10.76 8.03645 11.18 8.09645H11.25C12.069 8.27454 12.8442 8.61453 13.53 9.09645C13.6673 9.19057 13.8362 9.22652 14 9.19645C15.6774 8.77647 17.4325 8.77647 19.11 9.19645C19.2235 9.21063 19.3387 9.18969 19.44 9.13645C19.82 8.92645 20.2 8.69645 20.59 8.50645C21.0242 8.27098 21.5064 8.1376 22 8.11645C22.053 8.12424 22.1038 8.14349 22.1487 8.17284C22.1936 8.20219 22.2315 8.24096 22.26 8.28645C22.5763 9.09342 22.6219 9.9813 22.39 10.8164C22.3709 10.9236 22.3923 11.0341 22.45 11.1264C22.7371 11.5531 22.9847 12.0049 23.19 12.4764C23.6386 13.8853 23.5202 15.4135 22.86 16.7364Z" fill="white"/>
</g>
<defs>
<clipPath id="clip0_771_2154">
<rect y="0.396484" width="32" height="32" rx="8" fill="white"/>
</clipPath>
</defs>
</svg>
