<svg width="32" height="33" viewBox="0 0 32 33" fill="none" xmlns="http://www.w3.org/2000/svg">
<g clip-path="url(#clip0_776_522)">
<rect y="0.396484" width="32" height="32" rx="8" fill="#000000"/>
<path d="M14.19 15.3964L13.66 16.8964L14.71 16.8764L14.19 15.3964Z" fill="white"/>
<path fill-rule="evenodd" clip-rule="evenodd" d="M16.12 23.3967C15.5781 23.3963 15.0369 23.3595 14.5 23.2867C14.1629 23.5223 13.8505 23.7417 13.5614 23.9447C11.5399 25.3641 10.6548 25.9857 10.4134 25.7945C10.2255 25.6456 10.4277 25.0042 10.7872 23.8634C10.9286 23.4151 11.0942 22.8896 11.27 22.2867C8.7 21.0267 7 18.7967 7 16.2467C7 12.2967 11.08 9.09668 16.12 9.09668C21.16 9.09668 25.23 12.2967 25.23 16.2467C25.23 20.1967 21.15 23.3967 16.12 23.3967ZM11.6002 17.1512C11.5772 16.6081 11.5485 15.9305 11.6 15.1267C11.7043 15.111 11.8453 15.128 11.9967 15.1462C12.4262 15.198 12.94 15.2598 12.94 14.6167C12.94 14.0399 12.3687 14.0652 11.4243 14.107C10.9441 14.1283 10.3673 14.1538 9.72002 14.1067C9.58476 14.1067 9.45504 14.1604 9.3594 14.256C9.26375 14.3517 9.21002 14.4814 9.21002 14.6167C9.21002 15.1844 9.80453 15.1517 10.2303 15.1284C10.3595 15.1213 10.4732 15.115 10.55 15.1267C10.602 15.9415 10.5711 16.6252 10.5464 17.1709C10.4999 18.1989 10.4755 18.7367 11.07 18.7367C11.6674 18.7367 11.6442 18.1893 11.6002 17.1512ZM14.6215 14.2538C14.7483 14.3464 14.8423 14.4769 14.89 14.6264C15.1592 15.4625 15.4573 16.1794 15.7016 16.7668C16.1469 17.8374 16.4132 18.4779 16 18.6264C15.3815 18.9161 15.235 18.4642 15.1093 18.0767C15.0745 17.9693 15.0412 17.8668 15 17.7864H13.35C13.319 17.858 13.2933 17.9472 13.266 18.0417C13.1523 18.4361 13.0114 18.9249 12.35 18.6264C11.9601 18.4667 12.2278 17.825 12.665 16.7771C12.9119 16.1853 13.2129 15.4638 13.48 14.6264C13.5277 14.4769 13.6217 14.3464 13.7484 14.2538C13.8751 14.1612 14.028 14.1113 14.185 14.1113C14.3419 14.1113 14.4948 14.1612 14.6215 14.2538ZM17.914 18.6548C18.6025 18.6865 19.18 18.7131 19.18 18.1766C19.18 17.6406 18.5816 17.6707 18.0616 17.6968C17.8734 17.7063 17.6955 17.7152 17.56 17.6966V14.6566C17.5423 14.5273 17.4783 14.4088 17.38 14.323C17.2816 14.2372 17.1555 14.1899 17.025 14.1899C16.8945 14.1899 16.7684 14.2372 16.67 14.323C16.5717 14.4088 16.5077 14.5273 16.49 14.6566C16.5489 15.6908 16.4967 16.5191 16.4571 17.148C16.389 18.2278 16.358 18.7198 16.99 18.6566C17.2933 18.6263 17.6142 18.641 17.914 18.6548ZM22.7547 18.2442C22.7815 18.119 22.762 17.9884 22.7 17.8764L21.4 16.1764L22.6 14.9864C22.6587 14.9122 22.6951 14.8229 22.705 14.7288C22.7149 14.6348 22.698 14.5398 22.6561 14.455C22.6142 14.3702 22.5491 14.299 22.4684 14.2497C22.3877 14.2004 22.2946 14.175 22.2 14.1764C22.0058 14.1764 21.9489 14.2353 21.567 14.6311C21.3395 14.867 20.9964 15.2225 20.44 15.7564C20.4219 15.6189 20.4313 15.4417 20.4413 15.2546C20.4697 14.7206 20.5024 14.1064 19.91 14.1064C19.7721 14.1064 19.6398 14.1612 19.5423 14.2587C19.4448 14.3563 19.39 14.4885 19.39 14.6264C19.4465 15.6085 19.4145 16.4084 19.3894 17.0322C19.3436 18.1743 19.3215 18.7264 19.91 18.7264C19.9791 18.7278 20.0478 18.7153 20.1121 18.6898C20.1763 18.6642 20.2348 18.6261 20.2842 18.5777C20.3335 18.5293 20.3727 18.4715 20.3995 18.4078C20.4263 18.344 20.44 18.2756 20.44 18.2064V17.0664L20.62 16.8864L21.86 18.5064C21.9501 18.5973 22.0701 18.6526 22.1977 18.6619C22.3253 18.6713 22.452 18.6341 22.5544 18.5573C22.6568 18.4806 22.728 18.3693 22.7547 18.2442Z" fill="#d4c3da"/>
</g>
<defs>
<clipPath id="clip0_776_522">
<rect y="0.396484" width="32" height="32" rx="8" fill="white"/>
</clipPath>
</defs>
</svg>
