<svg width="69" height="25" viewBox="0 0 69 25" fill="none" xmlns="http://www.w3.org/2000/svg">
<path d="M31.6094 17.5801L33.1511 16.3902C33.9505 17.6154 35.0202 18.2823 36.3983 18.2823C37.9401 18.2823 38.9743 17.328 38.9743 16.0297C38.9743 14.5876 37.5037 14.1022 35.9073 13.6145C34.1118 13.0372 32.1881 12.3162 32.1881 9.93872C32.1881 7.9571 33.9671 6.40668 36.3604 6.40668C38.3196 6.40668 39.553 7.16304 40.5516 8.31761L39.119 9.38029C38.4833 8.426 37.5772 7.9571 36.3604 7.9571C34.9277 7.9571 33.9837 8.76766 33.9837 9.90338C33.9837 11.2912 35.4543 11.6871 36.9961 12.2102C38.8272 12.8416 40.7864 13.5792 40.7864 16.0297C40.7864 18.049 39.1 19.9222 36.4149 19.9222C34.1877 19.9222 32.6981 19.0033 31.6094 17.5801Z" fill="black"/>
<path d="M42.2051 13.1645C42.2051 9.43448 45.2341 6.40668 48.9889 6.40668C52.7626 6.40668 55.7916 9.43448 55.7916 13.1645C55.7916 16.8944 52.7626 19.9222 48.9889 19.9222C45.2341 19.9222 42.2051 16.8968 42.2051 13.1645ZM54.034 13.1645C54.034 10.3723 51.821 8.10083 48.9912 8.10083C46.1781 8.10083 43.984 10.3723 43.984 13.1645C43.984 15.9401 46.1781 18.2281 48.9912 18.2281C51.821 18.2304 54.034 15.9401 54.034 13.1645Z" fill="black"/>
<path d="M57.5898 6.58813H65.0828V8.24695H59.3332V12.3209H65.0828V13.9797H59.3332V19.7455H57.5922V6.58813H57.5898Z" fill="black"/>
<path d="M67.2402 6.58813H69.0002V19.7432H67.2402V6.58813Z" fill="black"/>
<path d="M12.5832 0L0 12.5L12.5832 25L25.1664 12.5L12.5832 0ZM9.72499 19.9034L15.5007 14.1093L14.3503 12.9948L8.58883 18.7747L2.27233 12.5L12.5832 2.2573L15.4438 5.09896L9.68704 10.9142L10.8374 12.0287L16.5799 6.22762L22.8941 12.5L12.5832 22.7427L9.72499 19.9034Z" fill="#B459FF"/>
</svg>
