<svg width="32" height="33" viewBox="0 0 32 33" fill="none" xmlns="http://www.w3.org/2000/svg">
<g clip-path="url(#clip0_776_535)">
<rect y="0.396484" width="32" height="32" rx="8" fill="#6B7280"/>
<path fill-rule="evenodd" clip-rule="evenodd" d="M10.8699 20.5766C10.2934 19.0259 11.312 17.7324 12.6736 17.1988C13.0037 17.0641 13.3552 16.9742 13.7099 16.9366C14.3183 16.8254 14.9466 16.9241 15.4916 17.2166C16.0366 17.5091 16.4662 17.978 16.7099 18.5466C17.2045 20.0951 16.2225 21.2591 14.9178 21.7796C13.4067 22.386 11.4462 22.1225 10.8699 20.5766ZM12.9999 20.8864C11.6199 21.2064 11.3799 19.4664 12.6299 19.1864C14.1399 18.8464 13.9999 20.6564 12.9999 20.8864ZM14.6288 19.1673C14.6812 19.098 14.7097 19.0135 14.7098 18.9266C14.6498 18.5566 13.9998 18.6066 13.9698 19.1366C14.0156 19.2105 14.0843 19.2674 14.1653 19.2988C14.2464 19.3302 14.3354 19.3344 14.4191 19.3107C14.5027 19.2869 14.5763 19.2366 14.6288 19.1673Z" fill="white"/>
<path fill-rule="evenodd" clip-rule="evenodd" d="M9.21988 22.6465C14.3299 25.4865 22.5199 22.8965 22.9999 19.0265C23.2372 17.2465 22.1382 16.7238 20.9939 16.1795C20.7882 16.0817 20.581 15.9831 20.3799 15.8765C20.5681 15.535 20.6668 15.1514 20.6668 14.7615C20.6668 14.3715 20.5681 13.988 20.3799 13.6465C19.6177 12.7765 18.168 13.173 16.9935 13.4943C16.5344 13.6199 16.1174 13.734 15.7999 13.7565C16.3199 12.1765 15.7399 10.5765 13.7999 11.0665C12.1247 11.5143 10.6099 12.4259 9.42988 13.6965C8.11988 14.9865 6.77988 16.5065 6.58988 18.4565C6.36988 20.7265 7.81988 21.8665 9.21988 22.6465ZM10.5499 16.4963C6.8299 18.6463 8.3999 22.4963 12.9699 22.8063C14.0544 22.9129 15.1491 22.7899 16.1829 22.4453C16.3358 22.3944 16.4869 22.3387 16.636 22.2785C17.5137 21.9309 18.3219 21.4256 19.0199 20.7863C19.5316 20.2426 19.8299 19.5324 19.8599 18.7863C19.8074 15.8176 15.2148 14.8429 11.878 15.9157C11.4046 16.068 10.9563 16.2615 10.5499 16.4963Z" fill="white"/>
<path d="M21.4762 13.1174C21.5941 13.2907 21.6706 13.4889 21.6999 13.6965C21.7125 13.8736 21.7034 14.0405 21.6952 14.1906C21.671 14.6339 21.6547 14.9314 22.2299 14.9165C23.3399 14.8465 23.1299 11.2965 20.3399 11.5065C20.305 11.5087 20.2673 11.5099 20.2279 11.5112C19.9172 11.5214 19.4999 11.5351 19.4999 12.0765C19.4999 12.5939 19.8662 12.5937 20.2873 12.5934C20.5336 12.5933 20.7985 12.5931 21.0199 12.6965C21.2022 12.8 21.3583 12.944 21.4762 13.1174Z" fill="white"/>
<path d="M23.9897 14.4528C23.8724 15.1036 23.7522 15.7715 24.5999 15.6965V15.7165C25.2899 15.6565 25.4699 14.3965 25.3899 13.3965C25.3505 12.7255 25.1698 12.0704 24.8596 11.4742C24.5494 10.878 24.1167 10.354 23.5898 9.93668C23.063 9.51935 22.4539 9.21808 21.8025 9.0526C21.1511 8.88712 20.472 8.86117 19.8099 8.97646C19.7677 8.9816 19.7257 8.9861 19.6841 8.99056C19.321 9.02947 18.9917 9.06477 18.9199 9.48646C18.7635 10.3673 19.5491 10.2926 20.1162 10.2387C20.238 10.2271 20.3497 10.2165 20.4399 10.2165C21.4009 10.2165 22.3227 10.5975 23.0032 11.2761C23.6836 11.9547 24.0672 12.8755 24.0699 13.8365C24.0674 14.0213 24.0287 14.2361 23.9897 14.4528Z" fill="white"/>
</g>
<defs>
<clipPath id="clip0_776_535">
<rect y="0.396484" width="32" height="32" rx="8" fill="white"/>
</clipPath>
</defs>
</svg>
