<svg width="20" height="16" viewBox="0 0 20 16" xmlns="http://www.w3.org/2000/svg">
<path d="M18.4036 1.86979L20 0.335937V0H14.4714L10.5312 9.85417L6.04948 0H0.252604V0.335937L2.11719 2.59115C2.29948 2.75781 2.39323 3.0026 2.36979 3.2474V12.1094C2.42708 12.4297 2.32552 12.7552 2.10156 12.987L0 15.5469V15.8776H5.95312V15.5417L3.85417 12.9896C3.74171 12.8754 3.65711 12.7368 3.60698 12.5846C3.55684 12.4324 3.54251 12.2706 3.5651 12.112V4.44531L8.79167 15.8828H9.39844L13.8932 4.44531V13.5573C13.8932 13.7969 13.8932 13.8464 13.737 14.0052L12.1198 15.5755V15.9115H19.9635V15.5755L18.4036 14.0417C18.2682 13.9375 18.1979 13.763 18.2266 13.5938V2.31771C18.2131 2.23402 18.2224 2.14825 18.2536 2.06942C18.2847 1.9906 18.3366 1.92163 18.4036 1.86979Z" />
</svg>
