<svg width="28" height="24" viewBox="0 0 28 24" fill="none" xmlns="http://www.w3.org/2000/svg">
<path d="M20.9147 7.33613C20.4056 7.03361 19.7367 7.03361 19.1777 7.33613L15.1944 9.66555L12.489 11.1882L8.50574 13.5176C7.9966 13.8202 7.32774 13.8202 6.76868 13.5176L3.60404 11.6924C3.0949 11.3899 2.73551 10.8252 2.73551 10.2202V6.62017C2.73551 6.01513 3.04498 5.45042 3.60404 5.1479L6.71877 3.37311C7.2279 3.07059 7.89677 3.07059 8.45583 3.37311L11.5706 5.1479C12.0797 5.45042 12.4391 6.01513 12.4391 6.62017V8.94958L15.1445 7.37647V5.04706C15.1445 4.44202 14.835 3.87731 14.276 3.57479L8.50574 0.226891C7.9966 -0.0756302 7.32774 -0.0756302 6.76868 0.226891L0.898613 3.57479C0.339559 3.87731 0.0300827 4.44202 0.0300827 5.04706V11.7933C0.0300827 12.3983 0.339559 12.963 0.898613 13.2655L6.76868 16.6134C7.27782 16.916 7.94669 16.916 8.50574 16.6134L12.489 14.3345L15.1944 12.7613L19.1777 10.4824C19.6868 10.1798 20.3557 10.1798 20.9147 10.4824L24.0295 12.2571C24.5386 12.5597 24.898 13.1244 24.898 13.7294V17.3294C24.898 17.9345 24.5885 18.4992 24.0295 18.8017L20.9147 20.6269C20.4056 20.9294 19.7367 20.9294 19.1777 20.6269L16.063 18.8521C15.5538 18.5496 15.1944 17.9849 15.1944 17.3798V15.0504L12.489 16.6235V18.9529C12.489 19.558 12.7985 20.1227 13.3575 20.4252L19.2276 23.7731C19.7367 24.0756 20.4056 24.0756 20.9647 23.7731L26.8347 20.4252C27.3439 20.1227 27.7033 19.558 27.7033 18.9529V12.2067C27.7033 11.6017 27.3938 11.037 26.8347 10.7345L20.9147 7.33613Z" fill="#8247E5"/>
</svg>
