<svg width="20" height="17" viewBox="0 0 20 17" xmlns="http://www.w3.org/2000/svg">
<path d="M20 1.92858C19.2645 2.25449 18.4744 2.47469 17.6438 2.57423C18.5008 2.0614 19.142 1.25428 19.4477 0.30346C18.6425 0.781739 17.7612 1.11839 16.8422 1.29879C16.2242 0.638936 15.4057 0.201572 14.5136 0.0546044C13.6216 -0.0923631 12.706 0.0592882 11.909 0.486014C11.1119 0.912739 10.4781 1.59066 10.1058 2.41454C9.73358 3.23841 9.64374 4.16213 9.85026 5.0423C8.2187 4.96038 6.62259 4.53631 5.16553 3.79761C3.70847 3.05891 2.42301 2.02209 1.39258 0.754443C1.04025 1.36221 0.837664 2.06687 0.837664 2.81733C0.837271 3.49292 1.00364 4.15816 1.32201 4.75403C1.64038 5.3499 2.10091 5.85797 2.66273 6.23317C2.01117 6.21244 1.37397 6.03638 0.804193 5.71965V5.7725C0.804127 6.72004 1.13189 7.63842 1.73186 8.37181C2.33184 9.1052 3.16707 9.60843 4.09583 9.79611C3.4914 9.95969 2.85769 9.98378 2.24258 9.86657C2.50462 10.6819 3.01506 11.3948 3.70243 11.9056C4.3898 12.4164 5.21969 12.6995 6.07593 12.7152C4.62242 13.8562 2.82735 14.4751 0.979477 14.4724C0.652146 14.4725 0.325091 14.4534 0 14.4151C1.87569 15.6212 4.05914 16.2612 6.28909 16.2587C13.8378 16.2587 17.9644 10.0066 17.9644 4.58427C17.9644 4.4081 17.96 4.23018 17.9521 4.05401C18.7548 3.47352 19.4476 2.7547 19.9982 1.93122L20 1.92858Z"/>
</svg>
