<svg width="32" height="32" viewBox="0 0 32 32" fill="none" xmlns="http://www.w3.org/2000/svg">
<path d="M10.6666 20C10.6666 19.6464 10.8071 19.3073 11.0572 19.0572C11.3072 18.8072 11.6463 18.6667 12 18.6667C12.3536 18.6667 12.6927 18.8072 12.9428 19.0572C13.1928 19.3073 13.3333 19.6464 13.3333 20V21.3334C13.3333 21.687 13.1928 22.0261 12.9428 22.2762C12.6927 22.5262 12.3536 22.6667 12 22.6667C11.6463 22.6667 11.3072 22.5262 11.0572 22.2762C10.8071 22.0261 10.6666 21.687 10.6666 21.3334V20ZM18.6666 14.6667C18.6666 14.3131 18.8071 13.9739 19.0572 13.7239C19.3072 13.4739 19.6463 13.3334 20 13.3334C20.3536 13.3334 20.6927 13.4739 20.9428 13.7239C21.1928 13.9739 21.3333 14.3131 21.3333 14.6667V21.3334C21.3333 21.687 21.1928 22.0261 20.9428 22.2762C20.6927 22.5262 20.3536 22.6667 20 22.6667C19.6463 22.6667 19.3072 22.5262 19.0572 22.2762C18.8071 22.0261 18.6666 21.687 18.6666 21.3334V14.6667ZM14.6666 17.3334C14.6666 16.9798 14.8071 16.6406 15.0572 16.3906C15.3072 16.1405 15.6463 16 16 16C16.3536 16 16.6927 16.1405 16.9428 16.3906C17.1928 16.6406 17.3333 16.9798 17.3333 17.3334V21.3334C17.3333 21.687 17.1928 22.0261 16.9428 22.2762C16.6927 22.5262 16.3536 22.6667 16 22.6667C15.6463 22.6667 15.3072 22.5262 15.0572 22.2762C14.8071 22.0261 14.6666 21.687 14.6666 21.3334V17.3334Z" fill="#5542F6"/>
<path d="M10.6666 7.33337H9.33329C8.62605 7.33337 7.94777 7.61433 7.44767 8.11442C6.94758 8.61452 6.66663 9.2928 6.66663 10V24C6.66663 24.7073 6.94758 25.3856 7.44767 25.8857C7.94777 26.3858 8.62605 26.6667 9.33329 26.6667H22.6666C23.3739 26.6667 24.0521 26.3858 24.5522 25.8857C25.0523 25.3856 25.3333 24.7073 25.3333 24V10C25.3333 9.2928 25.0523 8.61452 24.5522 8.11442C24.0521 7.61433 23.3739 7.33337 22.6666 7.33337H21.3333V8.66671H22.6666C23.0202 8.66671 23.3594 8.80718 23.6094 9.05723C23.8595 9.30728 24 9.64642 24 10V24C24 24.3537 23.8595 24.6928 23.6094 24.9428C23.3594 25.1929 23.0202 25.3334 22.6666 25.3334H9.33329C8.97967 25.3334 8.64053 25.1929 8.39048 24.9428C8.14044 24.6928 7.99996 24.3537 7.99996 24V10C7.99996 9.64642 8.14044 9.30728 8.39048 9.05723C8.64053 8.80718 8.97967 8.66671 9.33329 8.66671H10.6666V7.33337Z" fill="#5542F6"/>
<path d="M18 6.66671C18.1768 6.66671 18.3464 6.73695 18.4714 6.86197C18.5964 6.98699 18.6667 7.15656 18.6667 7.33337V8.66671C18.6667 8.84352 18.5964 9.01309 18.4714 9.13811C18.3464 9.26314 18.1768 9.33337 18 9.33337H14C13.8232 9.33337 13.6536 9.26314 13.5286 9.13811C13.4036 9.01309 13.3333 8.84352 13.3333 8.66671V7.33337C13.3333 7.15656 13.4036 6.98699 13.5286 6.86197C13.6536 6.73695 13.8232 6.66671 14 6.66671H18ZM14 5.33337C13.4696 5.33337 12.9609 5.54409 12.5858 5.91916C12.2107 6.29423 12 6.80294 12 7.33337V8.66671C12 9.19714 12.2107 9.70585 12.5858 10.0809C12.9609 10.456 13.4696 10.6667 14 10.6667H18C18.5304 10.6667 19.0391 10.456 19.4142 10.0809C19.7893 9.70585 20 9.19714 20 8.66671V7.33337C20 6.80294 19.7893 6.29423 19.4142 5.91916C19.0391 5.54409 18.5304 5.33337 18 5.33337H14Z" fill="#5542F6"/>
</svg>
