<svg width="32" height="32" viewBox="0 0 32 32" fill="none" xmlns="http://www.w3.org/2000/svg">
<path d="M12 8.00004V5.33337H5.33337V12H8.00004V20H5.33337V26.6667H12V24H20V26.6667H26.6667V20H24V12H26.6667V5.33337H20V8.00004H12ZM20 9.33337V12H22.6667V20H20V22.6667H12V20H9.33337V12H12V9.33337H20ZM21.3334 6.66671H25.3334V10.6667H21.3334V6.66671ZM25.3334 21.3334V25.3334H21.3334V21.3334H25.3334ZM10.6667 25.3334H6.66671V21.3334H10.6667V25.3334ZM6.66671 10.6667V6.66671H10.6667V10.6667H6.66671Z" fill="#5542F6"/>
</svg>
