<svg width="64" height="64" viewBox="0 0 64 64" fill="none" xmlns="http://www.w3.org/2000/svg">
<g filter="url(#filter0_i_341_945)">
<rect width="64" height="64" rx="32" fill="#5542F6"/>
</g>
<rect x="2" y="2" width="60" height="60" rx="30" stroke="#626BE9" stroke-width="4"/>
<path opacity="0.6" d="M28.465 23.68C27.6168 24.5283 26.9844 25.5678 26.621 26.7111C26.2576 27.8544 26.1738 29.0682 26.3766 30.2506C26.5794 31.433 27.0629 32.5496 27.7864 33.5065C28.51 34.4634 29.4526 35.2327 30.535 35.75L32.4725 33.81C31.6249 33.5826 30.852 33.1362 30.2316 32.5155C29.6112 31.8948 29.165 31.1218 28.938 30.274C28.711 29.4263 28.7111 28.5338 28.9384 27.6861C29.1656 26.8384 29.6119 26.0655 30.2325 25.445L34.8 20.875C35.7382 19.9368 37.0107 19.4097 38.3375 19.4097C39.6643 19.4097 40.9368 19.9368 41.875 20.875C42.8132 21.8132 43.3403 23.0857 43.3403 24.4125C43.3403 25.7393 42.8132 27.0118 41.875 27.95L39.8925 29.93C40.1725 30.98 40.28 32.0675 40.2125 33.1475L43.6425 29.7175C45.0491 28.3108 45.8394 26.403 45.8394 24.4137C45.8394 22.4244 45.0491 20.5166 43.6425 19.11C42.2359 17.7033 40.328 16.9131 38.3387 16.9131C36.3495 16.9131 34.4416 17.7033 33.035 19.11L28.465 23.68Z" fill="#18181B"/>
<path d="M23.7875 28.355L20.3575 31.785C18.9509 33.1916 18.1606 35.0995 18.1606 37.0887C18.1606 39.078 18.9509 40.9859 20.3575 42.3925C21.7641 43.7991 23.672 44.5894 25.6612 44.5894C27.6505 44.5894 29.5584 43.7991 30.965 42.3925L35.535 37.82C36.3832 36.9716 37.0156 35.9322 37.379 34.7889C37.7424 33.6456 37.8262 32.4317 37.6234 31.2493C37.4206 30.0669 36.9372 28.9504 36.2136 27.9935C35.49 27.0366 34.5474 26.2672 33.465 25.75L32 27.215C31.8513 27.364 31.7219 27.5311 31.615 27.7125C32.4513 27.9529 33.2104 28.4074 33.8172 29.0311C34.4241 29.6548 34.8576 30.4261 35.075 31.2687C35.2924 32.1113 35.2861 32.996 35.0568 33.8355C34.8275 34.6749 34.3831 35.44 33.7675 36.055L29.2 40.625C28.2618 41.5632 26.9893 42.0903 25.6625 42.0903C24.3357 42.0903 23.0632 41.5632 22.125 40.625C21.1868 39.6868 20.6597 38.4143 20.6597 37.0875C20.6597 35.7607 21.1868 34.4882 22.125 33.55L24.1075 31.57C23.8278 30.5218 23.7197 29.4352 23.7875 28.3525V28.355Z" fill="#18181B"/>
<defs>
<filter id="filter0_i_341_945" x="0" y="0" width="64" height="64" filterUnits="userSpaceOnUse" color-interpolation-filters="sRGB">
<feFlood flood-opacity="0" result="BackgroundImageFix"/>
<feBlend mode="normal" in="SourceGraphic" in2="BackgroundImageFix" result="shape"/>
<feColorMatrix in="SourceAlpha" type="matrix" values="0 0 0 0 0 0 0 0 0 0 0 0 0 0 0 0 0 0 127 0" result="hardAlpha"/>
<feMorphology radius="2" operator="erode" in="SourceAlpha" result="effect1_innerShadow_341_945"/>
<feOffset/>
<feGaussianBlur stdDeviation="6"/>
<feComposite in2="hardAlpha" operator="arithmetic" k2="-1" k3="1"/>
<feColorMatrix type="matrix" values="0 0 0 0 0 0 0 0 0 0 0 0 0 0 0 0 0 0 0.12 0"/>
<feBlend mode="normal" in2="shape" result="effect1_innerShadow_341_945"/>
</filter>
</defs>
</svg>
