<svg width="64" height="64" viewBox="0 0 64 64" fill="none" xmlns="http://www.w3.org/2000/svg">
<g filter="url(#filter0_i_341_927)">
<rect width="64" height="64" rx="32" fill="#5542F6"/>
</g>
<rect x="2" y="2" width="60" height="60" rx="30" stroke="#626BE9" stroke-width="4"/>
<path d="M19.5 47C19.5 47 17 47 17 44.5C17 42 19.5 34.5 32 34.5C44.5 34.5 47 42 47 44.5C47 47 44.5 47 44.5 47H19.5Z" fill="white"/>
<path opacity="0.6" d="M32 32C33.9891 32 35.8968 31.2098 37.3033 29.8033C38.7098 28.3968 39.5 26.4891 39.5 24.5C39.5 22.5109 38.7098 20.6032 37.3033 19.1967C35.8968 17.7902 33.9891 17 32 17C30.0109 17 28.1032 17.7902 26.6967 19.1967C25.2902 20.6032 24.5 22.5109 24.5 24.5C24.5 26.4891 25.2902 28.3968 26.6967 29.8033C28.1032 31.2098 30.0109 32 32 32Z" fill="white"/>
<defs>
<filter id="filter0_i_341_927" x="0" y="0" width="64" height="64" filterUnits="userSpaceOnUse" color-interpolation-filters="sRGB">
<feFlood flood-opacity="0" result="BackgroundImageFix"/>
<feBlend mode="normal" in="SourceGraphic" in2="BackgroundImageFix" result="shape"/>
<feColorMatrix in="SourceAlpha" type="matrix" values="0 0 0 0 0 0 0 0 0 0 0 0 0 0 0 0 0 0 127 0" result="hardAlpha"/>
<feMorphology radius="2" operator="erode" in="SourceAlpha" result="effect1_innerShadow_341_927"/>
<feOffset/>
<feGaussianBlur stdDeviation="6"/>
<feComposite in2="hardAlpha" operator="arithmetic" k2="-1" k3="1"/>
<feColorMatrix type="matrix" values="0 0 0 0 0 0 0 0 0 0 0 0 0 0 0 0 0 0 0.12 0"/>
<feBlend mode="normal" in2="shape" result="effect1_innerShadow_341_927"/>
</filter>
</defs>
</svg>
