<svg width="64" height="64" viewBox="0 0 64 64" fill="none" xmlns="http://www.w3.org/2000/svg">
<g filter="url(#filter0_i_341_936)">
<rect width="64" height="64" rx="32" fill="#5542F6"/>
</g>
<rect x="2" y="2" width="60" height="60" rx="30" stroke="#626BE9" stroke-width="4"/>
<g clip-path="url(#clip0_341_936)">
<path d="M52 38.25C52 41.8967 50.5513 45.3941 47.9727 47.9727C45.3941 50.5513 41.8967 52 38.25 52C34.6033 52 31.1059 50.5513 28.5273 47.9727C25.9487 45.3941 24.5 41.8967 24.5 38.25C24.5 34.6033 25.9487 31.1059 28.5273 28.5273C31.1059 25.9487 34.6033 24.5 38.25 24.5C41.8967 24.5 45.3941 25.9487 47.9727 28.5273C50.5513 31.1059 52 34.6033 52 38.25ZM32.625 41.555C32.7975 43.6425 34.49 45.2675 37.535 45.46V47H38.885V45.45C42.0325 45.235 43.875 43.6 43.875 41.225C43.875 39.0625 42.4675 37.95 39.95 37.375L38.885 37.125V32.935C40.235 33.085 41.095 33.8025 41.3 34.7975H43.67C43.495 32.7875 41.7225 31.215 38.885 31.0425V29.5H37.535V31.0725C34.845 31.33 33.015 32.9025 33.015 35.1275C33.015 37.095 34.375 38.3475 36.64 38.86L37.535 39.0725V43.5225C36.15 43.3225 35.235 42.5825 35.0275 41.555H32.625ZM37.525 36.8175C36.195 36.5175 35.475 35.9075 35.475 34.9875C35.475 33.9625 36.2525 33.19 37.535 32.965V36.815H37.5225L37.525 36.8175ZM39.08 39.4275C40.6925 39.79 41.4375 40.3775 41.4375 41.4175C41.4375 42.6025 40.5125 43.4175 38.8875 43.5675V39.3825L39.08 39.4275Z" fill="white"/>
<path opacity="0.6" d="M12 24.5C12.0006 27.393 13.0043 30.1963 14.84 32.4323C16.6758 34.6683 19.23 36.1986 22.0675 36.7625C22.2291 34.9713 22.6888 33.2197 23.4275 31.58C21.2375 30.84 19.83 29.16 19.5 26.775H18.25V25.71H19.415V24.625C19.415 24.51 19.415 24.3925 19.425 24.2875H18.25V23.22H19.5275C20.09 20.1 22.5325 18.25 26.2025 18.25C26.9925 18.25 27.6775 18.3275 28.25 18.4625V20.295C27.5813 20.1462 26.8974 20.0774 26.2125 20.09C23.915 20.09 22.3675 21.255 21.8775 23.22H26.67V24.2875H21.72C21.7125 24.4025 21.7125 24.53 21.7125 24.655V25.71H26.67V26.7775H21.825C22.12 28.2825 22.995 29.3525 24.3375 29.85C25.6538 27.6699 27.4642 25.8297 29.6224 24.4778C31.7807 23.126 34.2265 22.3003 36.7625 22.0675C36.1494 19.0313 34.4312 16.3306 31.9408 14.4888C29.4504 12.6469 26.3651 11.7948 23.2824 12.0976C20.1997 12.4005 17.3392 13.8366 15.2548 16.1279C13.1704 18.4192 12.0106 21.4025 12 24.5Z" fill="white"/>
</g>
<defs>
<filter id="filter0_i_341_936" x="0" y="0" width="64" height="64" filterUnits="userSpaceOnUse" color-interpolation-filters="sRGB">
<feFlood flood-opacity="0" result="BackgroundImageFix"/>
<feBlend mode="normal" in="SourceGraphic" in2="BackgroundImageFix" result="shape"/>
<feColorMatrix in="SourceAlpha" type="matrix" values="0 0 0 0 0 0 0 0 0 0 0 0 0 0 0 0 0 0 127 0" result="hardAlpha"/>
<feMorphology radius="2" operator="erode" in="SourceAlpha" result="effect1_innerShadow_341_936"/>
<feOffset/>
<feGaussianBlur stdDeviation="6"/>
<feComposite in2="hardAlpha" operator="arithmetic" k2="-1" k3="1"/>
<feColorMatrix type="matrix" values="0 0 0 0 0 0 0 0 0 0 0 0 0 0 0 0 0 0 0.12 0"/>
<feBlend mode="normal" in2="shape" result="effect1_innerShadow_341_936"/>
</filter>
<clipPath id="clip0_341_936">
<rect width="40" height="40" fill="white" transform="translate(12 12)"/>
</clipPath>
</defs>
</svg>
