<svg width="32" height="32" viewBox="0 0 32 32" fill="none" xmlns="http://www.w3.org/2000/svg">
<path d="M21.5147 5.76803C21.8095 5.6943 22.1171 5.6887 22.4144 5.75164C22.7116 5.81458 22.9906 5.94441 23.2301 6.13128C23.4697 6.31815 23.6635 6.55714 23.7969 6.83012C23.9303 7.10309 23.9998 7.40287 24 7.7067V9.33337H24.6667C25.1971 9.33337 25.7058 9.54408 26.0809 9.91915C26.456 10.2942 26.6667 10.8029 26.6667 11.3334V23.3334C26.6667 23.8638 26.456 24.3725 26.0809 24.7476C25.7058 25.1227 25.1971 25.3334 24.6667 25.3334H7.33337C6.80294 25.3334 6.29423 25.1227 5.91916 24.7476C5.54409 24.3725 5.33337 23.8638 5.33337 23.3334V11.3334C5.33319 10.8185 5.53156 10.3234 5.88721 9.95112C6.24286 9.57883 6.72838 9.35804 7.24271 9.3347L21.5147 5.76803ZM12.7494 9.33337H22.6667V7.7067C22.6665 7.60555 22.6432 7.50577 22.5987 7.41493C22.5542 7.3241 22.4896 7.24457 22.4099 7.18239C22.3301 7.12021 22.2372 7.077 22.1382 7.05603C22.0393 7.03506 21.9369 7.03689 21.8387 7.06137L12.7494 9.33337ZM7.33337 10.6667C7.15656 10.6667 6.98699 10.7369 6.86197 10.862C6.73695 10.987 6.66671 11.1566 6.66671 11.3334V23.3334C6.66671 23.5102 6.73695 23.6797 6.86197 23.8048C6.98699 23.9298 7.15656 24 7.33337 24H24.6667C24.8435 24 25.0131 23.9298 25.1381 23.8048C25.2631 23.6797 25.3334 23.5102 25.3334 23.3334V11.3334C25.3334 11.1566 25.2631 10.987 25.1381 10.862C25.0131 10.7369 24.8435 10.6667 24.6667 10.6667H7.33337Z" fill="#5542F6"/>
</svg>
