<svg width="905" height="179" viewBox="0 0 905 179" xmlns="http://www.w3.org/2000/svg">
<path d="M323.205 67.4244V138.493C323.205 143.272 322.686 146.078 321.647 146.909C320.712 147.636 317.491 148 311.984 148H308.555V35.7864H312.14C317.127 35.7864 320.244 36.1501 321.491 36.8774C322.738 37.6047 324.348 40.0983 326.322 44.3583L343.31 83.1655H346.427L367.312 35.7864H369.649C375.26 35.7864 378.533 36.202 379.468 37.0332C380.507 37.7605 381.027 40.5139 381.027 45.2934V148H377.598C371.987 148 368.714 147.636 367.779 146.909C366.844 146.078 366.377 143.272 366.377 138.493L366.221 67.5803H365.753L354.22 95.4778L350.012 103.27H339.726L335.518 95.4778L323.673 67.4244H323.205ZM446.432 134.129V148H397.495V35.7864H444.874V49.0339H411.365L412.768 52.9302V76.7755L411.365 80.6719H443.003V94.5427H411.521L412.768 98.1273V130.233L411.365 134.129H446.432ZM504.611 49.0339H485.597L487 52.9302V138.493C487 143.272 486.481 146.078 485.441 146.909C484.506 147.636 481.233 148 475.623 148H471.882V52.9302L472.973 49.0339H454.271V35.7864H504.611V49.0339ZM566 148C560.701 148 557.48 147.584 556.337 146.753C555.298 145.922 554.311 143.169 553.376 138.493L548.077 112.154H528.44L522.05 148H518.465C513.478 148 510.309 147.74 508.958 147.221C507.607 146.597 506.932 145.247 506.932 143.169C506.932 140.987 514.829 105.193 530.622 35.7864H545.583L571.143 148H566ZM537.323 64.1515L531.557 94.5427L530.31 97.1922H546.363C546.259 97.0883 545.999 96.6207 545.583 95.7895C545.168 94.8544 544.96 94.3349 544.96 94.231L538.882 64.1515H537.323ZM580.517 132.571C590.908 133.61 598.492 134.129 603.272 134.129C608.051 134.129 611.324 133.765 613.091 133.038C614.961 132.311 616.363 131.48 617.299 130.545C618.234 129.506 618.909 127.999 619.325 126.025C619.844 123.531 620.104 120.466 620.104 116.83C620.104 113.193 619.221 110.024 617.454 107.323C615.688 104.621 614.026 102.595 612.467 101.244C611.012 99.8936 608.311 97.5039 604.363 94.0751C600.415 90.6464 597.609 88.2047 595.947 86.7501C594.388 85.1916 592.154 82.8018 589.245 79.5809C583.946 73.7624 581.297 67.6842 581.297 61.3462C581.297 50.3326 582.44 43.579 584.725 41.0854C588.258 37.4488 592.05 35.3708 596.103 34.8513C600.155 34.2279 604.467 33.9162 609.038 33.9162L630.234 38.4359C629.403 44.3583 628.208 47.839 626.65 48.878C625.922 49.5014 624.624 49.8131 622.753 49.8131C620.987 49.8131 618.649 49.5014 615.74 48.878L609.818 47.787C603.687 47.787 599.947 49.0339 598.596 51.5275C597.765 52.8782 597.246 54.125 597.038 55.2679C596.934 56.4109 596.882 58.1252 596.882 60.4111C596.882 64.671 602.129 71.2168 612.623 80.0484C617.61 83.9967 621.507 87.3215 624.312 90.023C627.117 92.7244 629.767 95.9973 632.26 99.8417C634.754 103.686 636.001 107.323 636.001 110.751C636.001 114.18 635.949 116.83 635.845 118.7C635.845 120.466 635.637 122.96 635.222 126.181C634.91 129.298 634.39 131.739 633.663 133.506C632.936 135.272 631.845 137.298 630.39 139.584C628.935 141.87 627.169 143.584 625.091 144.727C619.792 147.636 613.454 149.091 606.077 149.091C601.921 149.091 597.09 148.623 591.583 147.688C586.076 146.649 582.388 146.026 580.517 145.818V132.571ZM700.453 134.129V148H651.515V35.7864H698.894V49.0339H665.386L666.789 52.9302V76.7755L665.386 80.6719H697.024V94.5427H665.542L666.789 98.1273V130.233L665.386 134.129H700.453ZM751.307 113.713V35.7864H754.736C760.346 35.7864 763.619 36.202 764.554 37.0332C765.49 37.7605 765.957 40.5139 765.957 45.2934V148H761.282C756.087 148 752.866 147.636 751.619 146.909C750.372 146.078 749.021 143.532 747.567 139.272L727.462 71.9441H726.682V138.493C726.682 143.272 726.215 146.078 725.28 146.909C724.345 147.636 721.072 148 715.461 148H712.188V35.7864H715.617C720.708 35.7864 723.825 36.1501 724.968 36.8774C726.111 37.6047 727.514 40.1503 729.176 44.5141L750.528 113.713H751.307ZM779.29 132.571C789.68 133.61 797.265 134.129 802.044 134.129C806.824 134.129 810.097 133.765 811.863 133.038C813.733 132.311 815.136 131.48 816.071 130.545C817.006 129.506 817.681 127.999 818.097 126.025C818.617 123.531 818.876 120.466 818.876 116.83C818.876 113.193 817.993 110.024 816.227 107.323C814.46 104.621 812.798 102.595 811.24 101.244C809.785 99.8936 807.083 97.5039 803.135 94.0751C799.187 90.6464 796.382 88.2047 794.719 86.7501C793.161 85.1916 790.927 82.8018 788.018 79.5809C782.719 73.7624 780.069 67.6842 780.069 61.3462C780.069 50.3326 781.212 43.579 783.498 41.0854C787.031 37.4488 790.823 35.3708 794.875 34.8513C798.927 34.2279 803.239 33.9162 807.811 33.9162L829.007 38.4359C828.175 44.3583 826.981 47.839 825.422 48.878C824.695 49.5014 823.396 49.8131 821.526 49.8131C819.759 49.8131 817.422 49.5014 814.512 48.878L808.59 47.787C802.46 47.787 798.719 49.0339 797.369 51.5275C796.537 52.8782 796.018 54.125 795.81 55.2679C795.706 56.4109 795.654 58.1252 795.654 60.4111C795.654 64.671 800.901 71.2168 811.395 80.0484C816.383 83.9967 820.279 87.3215 823.084 90.023C825.89 92.7244 828.539 95.9973 831.033 99.8417C833.526 103.686 834.773 107.323 834.773 110.751C834.773 114.18 834.721 116.83 834.617 118.7C834.617 120.466 834.41 122.96 833.994 126.181C833.682 129.298 833.163 131.739 832.435 133.506C831.708 135.272 830.617 137.298 829.163 139.584C827.708 141.87 825.942 143.584 823.864 144.727C818.565 147.636 812.227 149.091 804.85 149.091C800.694 149.091 795.862 148.623 790.355 147.688C784.849 146.649 781.16 146.026 779.29 145.818V132.571ZM899.225 134.129V148H850.288V35.7864H897.667V49.0339H864.159L865.561 52.9302V76.7755L864.159 80.6719H895.797V94.5427H864.315L865.561 98.1273V130.233L864.159 134.129H899.225Z" />
<path d="M130.252 66.9078L130.239 66.9622L111.008 89.259L110.869 89.1977C110.897 89.2283 110.924 89.259 110.952 89.2896C108.777 91.704 106.447 94.2264 104.01 96.771C97.6624 103.4 91.0013 109.752 84.7964 114.678C81.7131 117.125 79.0309 118.989 76.8081 120.3C75.7154 120.945 74.8421 121.392 74.1855 121.689C73.5562 121.974 73.2421 122.069 73.2229 122.074C73.2221 122.075 73.2218 122.075 73.2229 122.074C70.3361 122.879 67.2646 123.319 64.0434 123.319C45.2494 123.319 30.0139 108.084 30.0139 89.2896C30.0139 70.4957 45.2494 55.2601 64.0434 55.2601C67.2646 55.2601 70.3357 55.6997 73.2225 56.5048C73.2072 56.5005 73.5201 56.5889 74.1855 56.8901C74.8421 57.1872 75.7154 57.6341 76.8081 58.2789C79.0309 59.5905 81.7131 61.4541 84.7964 63.9015C89.7525 67.8355 94.9997 72.6801 100.146 77.8488L119.315 55.7726C106.824 43.4094 92.5625 31.6173 81.0581 28.4089C75.6447 26.8991 69.9383 26.092 64.0434 26.092C29.1403 26.092 0.845825 54.3866 0.845825 89.2896C0.845825 124.193 29.1403 152.487 64.0434 152.487C69.9383 152.487 75.6447 151.68 81.0581 150.17C96.0639 145.985 115.76 127.197 130.101 111.586L130.099 111.583L149.335 89.2706L149.341 89.2685C151.51 86.8606 153.834 84.3455 156.264 81.8082C162.611 75.1794 169.272 68.8267 175.477 63.9015C178.561 61.4541 181.243 59.5905 183.466 58.2789C184.558 57.6341 185.432 57.1872 186.088 56.8901C186.754 56.5889 187.067 56.5005 187.051 56.5048C189.938 55.6997 193.009 55.2602 196.23 55.2602C215.024 55.2602 230.26 70.4957 230.26 89.2896C230.26 108.084 215.024 123.319 196.23 123.319C193.009 123.319 189.938 122.879 187.051 122.074C187.032 122.069 186.718 121.974 186.088 121.689C185.432 121.392 184.558 120.945 183.466 120.3C181.243 118.989 178.561 117.125 175.477 114.678C170.439 110.678 165.1 105.738 159.872 100.473L140.849 122.698C153.367 135.101 167.678 146.953 179.216 150.17C184.629 151.68 190.335 152.487 196.23 152.487C231.133 152.487 259.428 124.193 259.428 89.2896C259.428 54.3866 231.133 26.092 196.23 26.092C190.335 26.092 184.629 26.8991 179.216 28.4089C164.237 32.5861 144.586 51.3133 130.252 66.9078Z"/>
<path d="M130.252 66.9078L130.239 66.9622L111.008 89.259L110.869 89.1977C110.897 89.2283 110.924 89.259 110.952 89.2896C108.777 91.704 106.447 94.2264 104.01 96.771C97.6624 103.4 91.0013 109.752 84.7964 114.678C81.7131 117.125 79.0309 118.989 76.8081 120.3C75.7154 120.945 74.8421 121.392 74.1855 121.689C73.5562 121.974 73.2421 122.069 73.2229 122.074C73.2221 122.075 73.2218 122.075 73.2229 122.074C70.3361 122.879 67.2646 123.319 64.0434 123.319C45.2494 123.319 30.0139 108.084 30.0139 89.2896C30.0139 70.4957 45.2494 55.2601 64.0434 55.2601C67.2646 55.2601 70.3357 55.6997 73.2225 56.5048C73.2072 56.5005 73.5201 56.5889 74.1855 56.8901C74.8421 57.1872 75.7154 57.6341 76.8081 58.2789C79.0309 59.5905 81.7131 61.4541 84.7964 63.9015C89.7525 67.8355 94.9997 72.6801 100.146 77.8488L119.315 55.7726C106.824 43.4094 92.5625 31.6173 81.0581 28.4089C75.6447 26.8991 69.9383 26.092 64.0434 26.092C29.1403 26.092 0.845825 54.3866 0.845825 89.2896C0.845825 124.193 29.1403 152.487 64.0434 152.487C69.9383 152.487 75.6447 151.68 81.0581 150.17C96.0639 145.985 115.76 127.197 130.101 111.586L130.099 111.583L149.335 89.2706L149.341 89.2685C151.51 86.8606 153.834 84.3455 156.264 81.8082C162.611 75.1794 169.272 68.8267 175.477 63.9015C178.561 61.4541 181.243 59.5905 183.466 58.2789C184.558 57.6341 185.432 57.1872 186.088 56.8901C186.754 56.5889 187.067 56.5005 187.051 56.5048C189.938 55.6997 193.009 55.2602 196.23 55.2602C215.024 55.2602 230.26 70.4957 230.26 89.2896C230.26 108.084 215.024 123.319 196.23 123.319C193.009 123.319 189.938 122.879 187.051 122.074C187.032 122.069 186.718 121.974 186.088 121.689C185.432 121.392 184.558 120.945 183.466 120.3C181.243 118.989 178.561 117.125 175.477 114.678C170.439 110.678 165.1 105.738 159.872 100.473L140.849 122.698C153.367 135.101 167.678 146.953 179.216 150.17C184.629 151.68 190.335 152.487 196.23 152.487C231.133 152.487 259.428 124.193 259.428 89.2896C259.428 54.3866 231.133 26.092 196.23 26.092C190.335 26.092 184.629 26.8991 179.216 28.4089C164.237 32.5861 144.586 51.3133 130.252 66.9078Z"/>
<defs>
<linearGradient id="paint0_linear_11599_39639" x1="8.46064" y1="54.5352" x2="367.812" y2="223.707" gradientUnits="userSpaceOnUse">
<stop stop-color="#FF0000"/>
<stop offset="1" stop-color="#FE8A01"/>
</linearGradient>
<linearGradient id="paint1_linear_11599_39639" x1="0.845823" y1="45.5375" x2="236.049" y2="156.154" gradientUnits="userSpaceOnUse">
<stop stop-color="#42ECCE"/>
<stop offset="0.499255" stop-color="#AB42EC"/>
<stop offset="1" stop-color="#337FF1"/>
</linearGradient>
</defs>
</svg>
