<svg width="433" height="125" viewBox="0 0 433 125" xmlns="http://www.w3.org/2000/svg">
<path d="M53.94 96.05V124.57L51.66 123.25L39.62 116.3V87.79L53.94 96.05Z"/>
<path d="M24.69 45.3999V107.68L0 93.4199V31.1399L24.69 45.3999Z"/>
<path d="M107.88 31.1499V93.4199L53.9399 124.57V96.0599L83.1799 79.1699V45.3999L107.88 31.1499Z"/>
<path d="M107.88 31.15L83.18 45.4L53.94 28.51L24.7 45.4L0 31.15L53.94 0L107.88 31.15Z"/>
<path d="M136.76 45.3999H152.25C155.91 45.3999 158.77 46.3299 160.81 48.1699C162.85 50.0199 163.87 52.5999 163.87 55.9099C163.87 59.2299 162.85 61.8099 160.81 63.6599C158.77 65.5099 155.92 66.4299 152.25 66.4299H144.22V79.0999H136.76V45.3999ZM151.29 60.7899C155.02 60.7899 156.88 59.1799 156.88 55.9599C156.88 54.2999 156.42 53.0799 155.49 52.2799C154.56 51.4799 153.16 51.0799 151.28 51.0799H144.2V60.7799H151.29V60.7899Z"/>
<path d="M172.62 77.9798C170.74 76.9798 169.29 75.5598 168.27 73.7298C167.25 71.8998 166.74 69.7398 166.74 67.2498C166.74 64.7598 167.25 62.6098 168.27 60.7698C169.29 58.9398 170.74 57.5298 172.62 56.5398C174.5 55.5498 176.69 55.0598 179.17 55.0598C181.66 55.0598 183.84 55.5498 185.72 56.5398C187.6 57.5298 189.05 58.9398 190.07 60.7698C191.09 62.5998 191.6 64.7598 191.6 67.2498C191.6 69.7398 191.09 71.8998 190.07 73.7298C189.05 75.5598 187.6 76.9798 185.72 77.9798C183.84 78.9798 181.65 79.4898 179.17 79.4898C176.69 79.4898 174.5 78.9798 172.62 77.9798ZM184.43 67.2498C184.43 64.9898 183.98 63.2998 183.07 62.1798C182.16 61.0598 180.86 60.5098 179.17 60.5098C175.66 60.5098 173.91 62.7598 173.91 67.2498C173.91 71.7398 175.66 73.9898 179.17 73.9898C182.68 73.9898 184.43 71.7398 184.43 67.2498Z"/>
<path d="M196.43 79.0999V45.3999H203.65V79.0999H196.43Z"/>
<path d="M226.39 55.6799H233.47L219.32 87.7099H212L216.49 77.8099L206.83 55.6699H214.34L220.27 70.5899L226.39 55.6799Z"/>
<path d="M292.79 68.7298H277.49C277.71 70.6098 278.33 71.9698 279.33 72.8198C280.33 73.6598 281.76 74.0898 283.61 74.0898C284.82 74.0898 286.02 73.8898 287.22 73.4898C288.42 73.0898 289.51 72.5298 290.5 71.7898L292.41 76.6198C291.26 77.5098 289.87 78.2098 288.23 78.7198C286.59 79.2298 284.94 79.4898 283.28 79.4898C279.33 79.4898 276.21 78.3998 273.93 76.2098C271.65 74.0298 270.51 71.0498 270.51 67.2898C270.51 64.8998 271 62.7798 271.99 60.9298C272.98 59.0798 274.35 57.6398 276.1 56.5998C277.85 55.5598 279.84 55.0498 282.08 55.0498C285.36 55.0498 287.97 56.1198 289.9 58.2498C291.83 60.3898 292.79 63.2898 292.79 66.9498V68.7298V68.7298ZM279 61.3398C278.19 62.2198 277.68 63.4798 277.49 65.1398H286.72C286.62 63.4498 286.2 62.1798 285.45 61.3198C284.7 60.4598 283.64 60.0298 282.27 60.0298C280.9 60.0298 279.82 60.4698 279 61.3398Z"/>
<path d="M313.23 74.03L312.85 79.29C311.92 79.42 311 79.48 310.08 79.48C306.51 79.48 303.91 78.7 302.26 77.14C300.62 75.58 299.8 73.2 299.8 70.02V61.03H295.35V55.63H299.8V48.75H307.02V55.63H312.9V61.03H307.02V69.97C307.02 72.77 308.33 74.18 310.94 74.18C311.67 74.18 312.44 74.13 313.23 74.03Z"/>
<path d="M349.8 55.6299H356.83L347.31 79.0999H341.19L336.03 65.8599L331.01 79.0999H324.94L315.38 55.6299H322.74L328.29 70.4999L333.83 55.6299H338.71L344.3 70.6399L349.8 55.6299Z"/>
<path d="M363.93 77.9798C362.05 76.9798 360.6 75.5598 359.58 73.7298C358.56 71.8998 358.05 69.7398 358.05 67.2498C358.05 64.7598 358.56 62.6098 359.58 60.7698C360.6 58.9398 362.05 57.5298 363.93 56.5398C365.81 55.5498 367.99 55.0598 370.48 55.0598C372.97 55.0598 375.15 55.5498 377.03 56.5398C378.91 57.5298 380.36 58.9398 381.38 60.7698C382.4 62.5998 382.91 64.7598 382.91 67.2498C382.91 69.7398 382.4 71.8998 381.38 73.7298C380.36 75.5598 378.91 76.9798 377.03 77.9798C375.15 78.9798 372.97 79.4898 370.48 79.4898C367.99 79.4898 365.81 78.9798 363.93 77.9798ZM375.74 67.2498C375.74 64.9898 375.29 63.2998 374.38 62.1798C373.47 61.0598 372.17 60.5098 370.48 60.5098C366.97 60.5098 365.22 62.7598 365.22 67.2498C365.22 71.7398 366.97 73.9898 370.48 73.9898C373.98 73.9898 375.74 71.7398 375.74 67.2498Z"/>
<path d="M404.47 60.98L400.41 61.41C398.4 61.6 396.98 62.17 396.16 63.11C395.33 64.05 394.92 65.3 394.92 66.86V79.1H387.7V55.63H394.63V59.6C395.81 56.89 398.25 55.41 401.95 55.15L404.05 55.01L404.47 60.98Z"/>
<path d="M432.77 79.0999H423.93L414.94 68.6299V79.0999H407.72V45.3999H414.94V65.6699L423.59 55.6799H432.2L422.35 66.8699L432.77 79.0999Z"/>
<path d="M258.91 45.3999H265.89V79.0999H260.34L243.56 57.6299V79.0999H236.63V45.3999H242.13L258.91 66.7699V45.3999Z"/>
</svg>
